Roboto Serif Text-Medium Italic.ufo
<glyph name="parenleft" format="1">
  <advance width="367"/>
  <unicode hex="0028"/>
  <outline>
    <contour>
      <point x="185" y="237" type="curve" smooth="yes"/>
      <point x="185" y="465"/>
      <point x="319" y="647"/>
      <point x="443" y="747" type="curve"/>
      <point x="444" y="750" type="line"/>
      <point x="353" y="750" type="line"/>
      <point x="209" y="668"/>
      <point x="61" y="482"/>
      <point x="61" y="249" type="curve" smooth="yes"/>
      <point x="61" y="89"/>
      <point x="127" y="-50"/>
      <point x="209" y="-130" type="curve"/>
      <point x="300" y="-130" type="line"/>
      <point x="300" y="-127" type="line"/>
      <point x="245" y="-58"/>
      <point x="185" y="74"/>
    </contour>
  </outline>
</glyph>
<glyph name="plus" format="1">
  <advance width="560"/>
  <unicode hex="002B"/>
  <outline>
    <contour>
      <point x="269" y="559" type="line"/>
      <point x="239" y="386" type="line"/>
      <point x="76" y="386" type="line"/>
      <point x="60" y="296" type="line"/>
      <point x="223" y="296" type="line"/>
      <point x="193" y="123" type="line"/>
      <point x="291" y="123" type="line"/>
      <point x="321" y="296" type="line"/>
      <point x="486" y="296" type="line"/>
      <point x="501" y="386" type="line"/>
      <point x="337" y="386" type="line"/>
      <point x="367" y="559" type="line"/>
    </contour>
  </outline>
</glyph>
<glyph name="period" format="1">
  <advance width="274"/>
  <unicode hex="002E"/>
  <outline>
    <contour>
      <point x="221" y="71" type="curve" smooth="yes"/>
      <point x="221" y="118"/>
      <point x="187" y="151"/>
      <point x="133" y="151" type="curve" smooth="yes"/>
      <point x="80" y="151"/>
      <point x="46" y="118"/>
      <point x="46" y="71" type="curve" smooth="yes"/>
      <point x="46" y="23"/>
      <point x="80" y="-9"/>
      <point x="133" y="-9" type="curve" smooth="yes"/>
      <point x="187" y="-9"/>
      <point x="221" y="23"/>
    </contour>
  </outline>
</glyph>
<glyph name="zero" format="1">
  <advance width="560"/>
  <unicode hex="0030"/>
  <outline>
    <contour>
      <point x="25" y="251" type="curve" smooth="yes"/>
      <point x="25" y="92"/>
      <point x="112" y="-11"/>
      <point x="245" y="-11" type="curve" smooth="yes"/>
      <point x="434" y="-11"/>
      <point x="535" y="182"/>
      <point x="535" y="357" type="curve" smooth="yes"/>
      <point x="535" y="516"/>
      <point x="448" y="619"/>
      <point x="316" y="619" type="curve" smooth="yes"/>
      <point x="126" y="619"/>
      <point x="25" y="426"/>
    </contour>
    <contour>
      <point x="315" y="549" type="curve"/>
      <point x="376" y="549"/>
      <point x="404" y="501"/>
      <point x="404" y="415" type="curve" smooth="yes"/>
      <point x="404" y="390"/>
      <point x="400" y="359"/>
      <point x="394" y="317" type="curve" smooth="yes"/>
      <point x="374" y="168"/>
      <point x="328" y="59"/>
      <point x="245" y="59" type="curve"/>
      <point x="184" y="59"/>
      <point x="156" y="107"/>
      <point x="156" y="193" type="curve" smooth="yes"/>
      <point x="156" y="218"/>
      <point x="160" y="249"/>
      <point x="166" y="291" type="curve" smooth="yes"/>
      <point x="186" y="440"/>
      <point x="232" y="549"/>
    </contour>
  </outline>
</glyph>
<glyph name="two" format="1">
  <advance width="560"/>
  <unicode hex="0032"/>
  <outline>
    <contour>
      <point x="-16" y="0" type="line"/>
      <point x="466" y="0" type="line"/>
      <point x="502" y="207" type="line"/>
      <point x="433" y="207" type="line"/>
      <point x="413" y="140" type="line" smooth="yes"/>
      <point x="402" y="105"/>
      <point x="371" y="100"/>
      <point x="291" y="100" type="curve" smooth="yes"/>
      <point x="104" y="100" type="line"/>
      <point x="319" y="196"/>
      <point x="516" y="294"/>
      <point x="516" y="450" type="curve" smooth="yes"/>
      <point x="516" y="556"/>
      <point x="441" y="618"/>
      <point x="295" y="618" type="curve" smooth="yes"/>
      <point x="199" y="618"/>
      <point x="125" y="583"/>
      <point x="85" y="554" type="curve"/>
      <point x="64" y="423" type="line"/>
      <point x="178" y="423" type="line"/>
      <point x="194" y="527" type="line"/>
      <point x="218" y="539"/>
      <point x="248" y="548"/>
      <point x="284" y="548" type="curve" smooth="yes"/>
      <point x="346" y="548"/>
      <point x="380" y="514"/>
      <point x="380" y="458" type="curve" smooth="yes"/>
      <point x="380" y="324"/>
      <point x="224" y="232"/>
      <point x="5" y="116" type="curve"/>
    </contour>
  </outline>
</glyph>
<glyph name="six" format="1">
  <advance width="560"/>
  <unicode hex="0036"/>
  <outline>
    <contour>
      <point x="267" y="-10" type="curve" smooth="yes"/>
      <point x="412" y="-10"/>
      <point x="527" y="97"/>
      <point x="527" y="262" type="curve" smooth="yes"/>
      <point x="527" y="384"/>
      <point x="450" y="453"/>
      <point x="348" y="453" type="curve" smooth="yes"/>
      <point x="286" y="453"/>
      <point x="232" y="423"/>
      <point x="192" y="380" type="curve"/>
      <point x="245" y="543"/>
      <point x="370" y="646"/>
      <point x="533" y="671" type="curve"/>
      <point x="534" y="740" type="line"/>
      <point x="232" y="708"/>
      <point x="29" y="486"/>
      <point x="29" y="242" type="curve" smooth="yes"/>
      <point x="29" y="82"/>
      <point x="127" y="-10"/>
    </contour>
    <contour>
      <point x="163" y="200" type="curve" smooth="yes"/>
      <point x="163" y="233"/>
      <point x="166" y="270"/>
      <point x="173" y="306" type="curve"/>
      <point x="211" y="355"/>
      <point x="255" y="384"/>
      <point x="304" y="384" type="curve" smooth="yes"/>
      <point x="364" y="384"/>
      <point x="389" y="338"/>
      <point x="389" y="275" type="curve" smooth="yes"/>
      <point x="389" y="257"/>
      <point x="385" y="228"/>
      <point x="381" y="204" type="curve" smooth="yes"/>
      <point x="370" y="122"/>
      <point x="326" y="59"/>
      <point x="264" y="59" type="curve" smooth="yes"/>
      <point x="201" y="59"/>
      <point x="163" y="111"/>
    </contour>
  </outline>
</glyph>
<glyph name="greater" format="1">
  <advance width="560"/>
  <unicode hex="003E"/>
  <outline>
    <contour>
      <point x="135" y="572" type="line"/>
      <point x="116" y="471" type="line"/>
      <point x="371" y="349" type="line"/>
      <point x="74" y="226" type="line"/>
      <point x="58" y="122" type="line"/>
      <point x="480" y="302" type="line"/>
      <point x="496" y="393" type="line"/>
    </contour>
  </outline>
</glyph>
<glyph name="B" format="1">
  <advance width="696"/>
  <unicode hex="0042"/>
  <outline>
    <contour>
      <point x="341" y="0" type="line" smooth="yes"/>
      <point x="540" y="0"/>
      <point x="635" y="83"/>
      <point x="635" y="213" type="curve" smooth="yes"/>
      <point x="635" y="292"/>
      <point x="582" y="348"/>
      <point x="484" y="373" type="curve"/>
      <point x="599" y="389"/>
      <point x="656" y="456"/>
      <point x="656" y="545" type="curve" smooth="yes"/>
      <point x="656" y="638"/>
      <point x="582" y="710"/>
      <point x="416" y="710" type="curve" smooth="yes"/>
      <point x="109" y="710" type="line"/>
      <point x="98" y="652" type="line"/>
      <point x="108" y="652" type="line" smooth="yes"/>
      <point x="153" y="652"/>
      <point x="179" y="644"/>
      <point x="174" y="616" type="curve" smooth="yes"/>
      <point x="81" y="93" type="line" smooth="yes"/>
      <point x="76" y="64"/>
      <point x="43" y="58"/>
      <point x="3" y="58" type="curve" smooth="yes"/>
      <point x="-7" y="58" type="line"/>
      <point x="-18" y="0" type="line"/>
    </contour>
    <contour>
      <point x="399" y="643" type="line" smooth="yes"/>
      <point x="475" y="643"/>
      <point x="511" y="606"/>
      <point x="511" y="548" type="curve" smooth="yes"/>
      <point x="511" y="474"/>
      <point x="474" y="404"/>
      <point x="366" y="404" type="curve"/>
      <point x="281" y="404" type="line"/>
      <point x="324" y="643" type="line"/>
    </contour>
    <contour>
      <point x="352" y="339" type="line"/>
      <point x="447" y="339"/>
      <point x="486" y="289"/>
      <point x="486" y="223" type="curve" smooth="yes"/>
      <point x="486" y="141"/>
      <point x="449" y="67"/>
      <point x="323" y="67" type="curve" smooth="yes"/>
      <point x="222" y="67" type="line"/>
      <point x="270" y="339" type="line"/>
    </contour>
  </outline>
</glyph>
<glyph name="E" format="1">
  <advance width="643"/>
  <unicode hex="0045"/>
  <outline>
    <contour>
      <point x="579" y="223" type="line"/>
      <point x="506" y="223" type="line"/>
      <point x="473" y="112" type="line" smooth="yes"/>
      <point x="463" y="76"/>
      <point x="429" y="69"/>
      <point x="346" y="69" type="curve" smooth="yes"/>
      <point x="222" y="69" type="line"/>
      <point x="269" y="332" type="line"/>
      <point x="474" y="322" type="line"/>
      <point x="488" y="404" type="line"/>
      <point x="280" y="395" type="line"/>
      <point x="324" y="641" type="line"/>
      <point x="423" y="641" type="line" smooth="yes"/>
      <point x="497" y="641"/>
      <point x="531" y="634"/>
      <point x="529" y="598" type="curve" smooth="yes"/>
      <point x="525" y="512" type="line"/>
      <point x="596" y="512" type="line"/>
      <point x="628" y="710" type="line"/>
      <point x="107" y="710" type="line"/>
      <point x="96" y="652" type="line"/>
      <point x="107" y="652" type="line" smooth="yes"/>
      <point x="148" y="652"/>
      <point x="178" y="645"/>
      <point x="173" y="616" type="curve" smooth="yes"/>
      <point x="81" y="95" type="line" smooth="yes"/>
      <point x="76" y="64"/>
      <point x="43" y="58"/>
      <point x="3" y="58" type="curve" smooth="yes"/>
      <point x="-7" y="58" type="line"/>
      <point x="-18" y="0" type="line"/>
      <point x="540" y="0" type="line"/>
    </contour>
    <contour>
      <point x="380" y="741" type="move" name="top"/>
    </contour>
    <contour>
      <point x="444" y="0" type="move" name="right"/>
    </contour>
    <contour>
      <point x="380" y="0" type="move" name="bottom"/>
    </contour>
  </outline>
</glyph>
<glyph name="O" format="1">
  <advance width="789"/>
  <unicode hex="004F"/>
  <outline>
    <contour>
      <point x="755" y="394" type="curve" smooth="yes"/>
      <point x="755" y="580"/>
      <point x="624" y="720"/>
      <point x="430" y="720" type="curve" smooth="yes"/>
      <point x="191" y="720"/>
      <point x="38" y="539"/>
      <point x="38" y="316" type="curve" smooth="yes"/>
      <point x="38" y="130"/>
      <point x="168" y="-10"/>
      <point x="363" y="-10" type="curve" smooth="yes"/>
      <point x="601" y="-10"/>
      <point x="755" y="171"/>
    </contour>
    <contour>
      <point x="190" y="291" type="curve" smooth="yes"/>
      <point x="190" y="465"/>
      <point x="273" y="647"/>
      <point x="429" y="647" type="curve" smooth="yes"/>
      <point x="545" y="647"/>
      <point x="603" y="556"/>
      <point x="603" y="419" type="curve" smooth="yes"/>
      <point x="603" y="245"/>
      <point x="519" y="63"/>
      <point x="364" y="63" type="curve" smooth="yes"/>
      <point x="247" y="63"/>
      <point x="190" y="154"/>
    </contour>
    <contour>
      <point x="392" y="741" type="move" name="top"/>
    </contour>
    <contour>
      <point x="392" y="0" type="move" name="bottom"/>
    </contour>
  </outline>
</glyph>
<glyph name="S" format="1">
  <advance width="611"/>
  <unicode hex="0053"/>
  <outline>
    <contour>
      <point x="310" y="-10" type="curve" smooth="yes"/>
      <point x="455" y="-10"/>
      <point x="562" y="72"/>
      <point x="562" y="211" type="curve" smooth="yes"/>
      <point x="562" y="328"/>
      <point x="468" y="381"/>
      <point x="370" y="423" type="curve" smooth="yes"/>
      <point x="286" y="458"/>
      <point x="215" y="480"/>
      <point x="215" y="552" type="curve" smooth="yes"/>
      <point x="215" y="609"/>
      <point x="255" y="648"/>
      <point x="331" y="648" type="curve" smooth="yes"/>
      <point x="413" y="648"/>
      <point x="473" y="592"/>
      <point x="484" y="521" type="curve"/>
      <point x="558" y="521" type="line"/>
      <point x="592" y="706" type="line"/>
      <point x="525" y="706" type="line"/>
      <point x="503" y="633" type="line"/>
      <point x="468" y="687"/>
      <point x="406" y="720"/>
      <point x="325" y="720" type="curve" smooth="yes"/>
      <point x="181" y="720"/>
      <point x="90" y="639"/>
      <point x="90" y="518" type="curve" smooth="yes"/>
      <point x="90" y="406"/>
      <point x="171" y="353"/>
      <point x="265" y="311" type="curve" smooth="yes"/>
      <point x="352" y="274"/>
      <point x="433" y="247"/>
      <point x="433" y="170" type="curve" smooth="yes"/>
      <point x="433" y="100"/>
      <point x="385" y="62"/>
      <point x="304" y="62" type="curve" smooth="yes"/>
      <point x="196" y="62"/>
      <point x="121" y="125"/>
      <point x="100" y="226" type="curve"/>
      <point x="20" y="226" type="line"/>
      <point x="-23" y="0" type="line"/>
      <point x="48" y="0" type="line"/>
      <point x="77" y="107" type="line"/>
      <point x="123" y="30"/>
      <point x="203" y="-10"/>
    </contour>
    <contour>
      <point x="332" y="741" type="move" name="top"/>
    </contour>
    <contour>
      <point x="332" y="0" type="move" name="bottom"/>
    </contour>
  </outline>
</glyph>
<glyph name="W" format="1">
  <advance width="1030"/>
  <unicode hex="0057"/>
  <outline>
    <contour>
      <point x="72" y="710" type="line"/>
      <point x="62" y="652" type="line"/>
      <point x="67" y="652" type="line" smooth="yes"/>
      <point x="99" y="652"/>
      <point x="120" y="648"/>
      <point x="122" y="618" type="curve" smooth="yes"/>
      <point x="163" y="0" type="line"/>
      <point x="309" y="0" type="line"/>
      <point x="560" y="580" type="line"/>
      <point x="596" y="0" type="line"/>
      <point x="739" y="0" type="line"/>
      <point x="1002" y="609" type="line" smooth="yes"/>
      <point x="1017" y="643"/>
      <point x="1039" y="652"/>
      <point x="1070" y="652" type="curve" smooth="yes"/>
      <point x="1076" y="652" type="line"/>
      <point x="1087" y="710" type="line"/>
      <point x="866" y="710" type="line"/>
      <point x="855" y="652" type="line"/>
      <point x="870" y="652" type="line" smooth="yes"/>
      <point x="901" y="652"/>
      <point x="938" y="645"/>
      <point x="936" y="634" type="curve"/>
      <point x="720" y="129" type="line"/>
      <point x="682" y="710" type="line"/>
      <point x="542" y="710" type="line"/>
      <point x="290" y="123" type="line"/>
      <point x="262" y="642" type="line"/>
      <point x="263" y="649"/>
      <point x="303" y="652"/>
      <point x="334" y="652" type="curve" smooth="yes"/>
      <point x="350" y="652" type="line"/>
      <point x="361" y="710" type="line"/>
    </contour>
    <contour>
      <point x="530" y="741" type="move" name="top"/>
    </contour>
  </outline>
</glyph>
<glyph name="Z" format="1">
  <advance width="619"/>
  <unicode hex="005A"/>
  <outline>
    <contour>
      <point x="564" y="222" type="line"/>
      <point x="490" y="222" type="line"/>
      <point x="459" y="113" type="line" smooth="yes"/>
      <point x="448" y="77"/>
      <point x="414" y="70"/>
      <point x="331" y="70" type="curve" smooth="yes"/>
      <point x="134" y="70" type="line"/>
      <point x="615" y="630" type="line"/>
      <point x="629" y="710" type="line"/>
      <point x="112" y="710" type="line"/>
      <point x="76" y="506" type="line"/>
      <point x="148" y="506" type="line"/>
      <point x="174" y="597" type="line" smooth="yes"/>
      <point x="185" y="633"/>
      <point x="221" y="640"/>
      <point x="295" y="640" type="curve" smooth="yes"/>
      <point x="464" y="640" type="line"/>
      <point x="-13" y="84" type="line"/>
      <point x="-29" y="0" type="line"/>
      <point x="526" y="0" type="line"/>
    </contour>
    <contour>
      <point x="321" y="741" type="move" name="top"/>
    </contour>
    <contour>
      <point x="321" y="0" type="move" name="bottom"/>
    </contour>
  </outline>
</glyph>
<glyph name="asciicircum" format="1">
  <advance width="502"/>
  <unicode hex="005E"/>
  <outline>
    <contour>
      <point x="138" y="360" type="line"/>
      <point x="303" y="640" type="line"/>
      <point x="366" y="360" type="line"/>
      <point x="464" y="360" type="line"/>
      <point x="373" y="710" type="line"/>
      <point x="256" y="710" type="line"/>
      <point x="40" y="360" type="line"/>
    </contour>
  </outline>
</glyph>
<glyph name="a" format="1">
  <advance width="622"/>
  <unicode hex="0061"/>
  <outline>
    <contour>
      <point x="207" y="-13" type="curve" smooth="yes"/>
      <point x="279" y="-13"/>
      <point x="328" y="26"/>
      <point x="374" y="97" type="curve"/>
      <point x="374" y="95"/>
      <point x="374" y="93"/>
      <point x="374" y="91" type="curve" smooth="yes"/>
      <point x="374" y="26"/>
      <point x="416" y="-9"/>
      <point x="479" y="-9" type="curve" smooth="yes"/>
      <point x="524" y="-9"/>
      <point x="561" y="7"/>
      <point x="583" y="20" type="curve"/>
      <point x="594" y="82" type="line"/>
      <point x="585" y="79"/>
      <point x="558" y="66"/>
      <point x="532" y="66" type="curve" smooth="yes"/>
      <point x="512" y="66"/>
      <point x="502" y="74"/>
      <point x="502" y="92" type="curve" smooth="yes"/>
      <point x="502" y="107"/>
      <point x="507" y="135"/>
      <point x="515" y="178" type="curve" smooth="yes"/>
      <point x="575" y="515" type="line"/>
      <point x="485" y="515" type="line"/>
      <point x="452" y="467" type="line"/>
      <point x="424" y="500"/>
      <point x="383" y="520"/>
      <point x="327" y="520" type="curve" smooth="yes"/>
      <point x="155" y="520"/>
      <point x="36" y="364"/>
      <point x="36" y="187" type="curve" smooth="yes"/>
      <point x="36" y="59"/>
      <point x="103" y="-13"/>
    </contour>
    <contour>
      <point x="179" y="181" type="curve" smooth="yes"/>
      <point x="179" y="309"/>
      <point x="245" y="453"/>
      <point x="338" y="453" type="curve" smooth="yes"/>
      <point x="373" y="453"/>
      <point x="400" y="436"/>
      <point x="417" y="406" type="curve"/>
      <point x="378" y="180" type="line"/>
      <point x="333" y="103"/>
      <point x="295" y="63"/>
      <point x="249" y="63" type="curve" smooth="yes"/>
      <point x="202" y="63"/>
      <point x="179" y="100"/>
    </contour>
    <contour>
      <point x="284" y="553" type="move" name="top"/>
    </contour>
    <contour>
      <point x="459" y="-10" type="move" name="right"/>
    </contour>
    <contour>
      <point x="314" y="0" type="move" name="bottom"/>
    </contour>
  </outline>
</glyph>
<glyph name="g" format="1">
  <advance width="619"/>
  <unicode hex="0067"/>
  <outline>
    <contour>
      <point x="214" y="-236" type="curve" smooth="yes"/>
      <point x="367" y="-236"/>
      <point x="472" y="-158"/>
      <point x="499" y="-9" type="curve" smooth="yes"/>
      <point x="592" y="515" type="line"/>
      <point x="500" y="515" type="line"/>
      <point x="471" y="471" type="line"/>
      <point x="442" y="501"/>
      <point x="399" y="520"/>
      <point x="340" y="520" type="curve" smooth="yes"/>
      <point x="160" y="520"/>
      <point x="36" y="368"/>
      <point x="36" y="195" type="curve" smooth="yes"/>
      <point x="36" y="64"/>
      <point x="105" y="-8"/>
      <point x="214" y="-8" type="curve" smooth="yes"/>
      <point x="282" y="-8"/>
      <point x="331" y="25"/>
      <point x="378" y="83" type="curve"/>
      <point x="362" y="-4" type="line" smooth="yes"/>
      <point x="342" y="-120"/>
      <point x="292" y="-169"/>
      <point x="209" y="-169" type="curve" smooth="yes"/>
      <point x="159" y="-169"/>
      <point x="124" y="-156"/>
      <point x="98" y="-134" type="curve"/>
      <point x="112" y="-55" type="line"/>
      <point x="-4" y="-55" type="line"/>
      <point x="-20" y="-144" type="line"/>
      <point x="16" y="-194"/>
      <point x="97" y="-236"/>
    </contour>
    <contour>
      <point x="350" y="453" type="curve" smooth="yes"/>
      <point x="388" y="453"/>
      <point x="417" y="438"/>
      <point x="436" y="411" type="curve"/>
      <point x="395" y="182" type="line"/>
      <point x="346" y="107"/>
      <point x="303" y="67"/>
      <point x="255" y="67" type="curve" smooth="yes"/>
      <point x="204" y="67"/>
      <point x="179" y="105"/>
      <point x="179" y="186" type="curve" smooth="yes"/>
      <point x="179" y="314"/>
      <point x="246" y="453"/>
    </contour>
  </outline>
</glyph>
<glyph name="h" format="1">
  <advance width="628"/>
  <unicode hex="0068"/>
  <outline>
    <contour>
      <point x="174" y="0" type="line"/>
      <point x="233" y="334" type="line"/>
      <point x="281" y="402"/>
      <point x="327" y="437"/>
      <point x="371" y="437" type="curve" smooth="yes"/>
      <point x="406" y="437"/>
      <point x="420" y="417"/>
      <point x="420" y="386" type="curve" smooth="yes"/>
      <point x="420" y="369"/>
      <point x="416" y="349"/>
      <point x="410" y="317" type="curve" smooth="yes"/>
      <point x="386" y="199" type="line" smooth="yes"/>
      <point x="374" y="140"/>
      <point x="371" y="114"/>
      <point x="371" y="87" type="curve" smooth="yes"/>
      <point x="371" y="23"/>
      <point x="416" y="-9"/>
      <point x="481" y="-9" type="curve" smooth="yes"/>
      <point x="527" y="-9"/>
      <point x="565" y="6"/>
      <point x="587" y="21" type="curve"/>
      <point x="598" y="82" type="line"/>
      <point x="590" y="79"/>
      <point x="563" y="66"/>
      <point x="537" y="66" type="curve" smooth="yes"/>
      <point x="517" y="66"/>
      <point x="507" y="74"/>
      <point x="507" y="92" type="curve" smooth="yes"/>
      <point x="507" y="107"/>
      <point x="513" y="135"/>
      <point x="522" y="178" type="curve" smooth="yes"/>
      <point x="547" y="311" type="line" smooth="yes"/>
      <point x="555" y="352"/>
      <point x="559" y="380"/>
      <point x="559" y="402" type="curve" smooth="yes"/>
      <point x="559" y="475"/>
      <point x="511" y="520"/>
      <point x="432" y="520" type="curve" smooth="yes"/>
      <point x="356" y="520"/>
      <point x="299" y="480"/>
      <point x="247" y="415" type="curve"/>
      <point x="303" y="735" type="line"/>
      <point x="92" y="735" type="line"/>
      <point x="82" y="678" type="line"/>
      <point x="92" y="676" type="line" smooth="yes"/>
      <point x="133" y="669"/>
      <point x="152" y="663"/>
      <point x="148" y="637" type="curve" smooth="yes"/>
      <point x="36" y="0" type="line"/>
    </contour>
    <contour>
      <point x="315" y="755" type="move" name="top"/>
    </contour>
    <contour>
      <point x="303" y="0" type="move" name="bottom"/>
    </contour>
  </outline>
</glyph>
<glyph name="k" format="1">
  <advance width="585"/>
  <unicode hex="006B"/>
  <outline>
    <contour>
      <point x="174" y="0" type="line"/>
      <point x="302" y="735" type="line"/>
      <point x="92" y="735" type="line"/>
      <point x="82" y="678" type="line"/>
      <point x="92" y="676" type="line" smooth="yes"/>
      <point x="133" y="669"/>
      <point x="152" y="663"/>
      <point x="148" y="637" type="curve" smooth="yes"/>
      <point x="36" y="0" type="line"/>
    </contour>
    <contour>
      <point x="547" y="23" type="curve"/>
      <point x="557" y="86" type="line"/>
      <point x="548" y="83"/>
      <point x="523" y="73"/>
      <point x="500" y="73" type="curve" smooth="yes"/>
      <point x="472" y="73"/>
      <point x="449" y="104"/>
      <point x="426" y="169" type="curve" smooth="yes"/>
      <point x="372" y="318" type="line"/>
      <point x="593" y="499" type="line"/>
      <point x="593" y="510" type="line"/>
      <point x="479" y="510" type="line"/>
      <point x="253" y="285" type="line"/>
      <point x="252" y="277" type="line"/>
      <point x="301" y="132" type="line" smooth="yes"/>
      <point x="331" y="40"/>
      <point x="373" y="-9"/>
      <point x="446" y="-9" type="curve" smooth="yes"/>
      <point x="488" y="-9"/>
      <point x="527" y="9"/>
    </contour>
    <contour>
      <point x="269" y="0" type="move" name="bottom"/>
    </contour>
  </outline>
</glyph>
<glyph name="m" format="1">
  <advance width="904"/>
  <unicode hex="006D"/>
  <outline>
    <contour>
      <point x="182" y="0" type="line"/>
      <point x="240" y="335" type="line"/>
      <point x="284" y="401"/>
      <point x="324" y="437"/>
      <point x="364" y="437" type="curve" smooth="yes"/>
      <point x="392" y="437"/>
      <point x="402" y="418"/>
      <point x="402" y="386" type="curve" smooth="yes"/>
      <point x="402" y="371"/>
      <point x="399" y="349"/>
      <point x="394" y="317" type="curve" smooth="yes"/>
      <point x="338" y="0" type="line"/>
      <point x="476" y="0" type="line"/>
      <point x="530" y="311" type="line" smooth="yes"/>
      <point x="532" y="320"/>
      <point x="533" y="329"/>
      <point x="534" y="337" type="curve"/>
      <point x="578" y="402"/>
      <point x="617" y="437"/>
      <point x="658" y="437" type="curve" smooth="yes"/>
      <point x="686" y="437"/>
      <point x="696" y="417"/>
      <point x="696" y="386" type="curve" smooth="yes"/>
      <point x="696" y="369"/>
      <point x="693" y="349"/>
      <point x="686" y="317" type="curve" smooth="yes"/>
      <point x="663" y="199" type="line" smooth="yes"/>
      <point x="651" y="140"/>
      <point x="647" y="114"/>
      <point x="647" y="87" type="curve" smooth="yes"/>
      <point x="647" y="23"/>
      <point x="692" y="-9"/>
      <point x="758" y="-9" type="curve" smooth="yes"/>
      <point x="803" y="-9"/>
      <point x="842" y="6"/>
      <point x="863" y="21" type="curve"/>
      <point x="875" y="82" type="line"/>
      <point x="866" y="79"/>
      <point x="839" y="66"/>
      <point x="814" y="66" type="curve" smooth="yes"/>
      <point x="793" y="66"/>
      <point x="784" y="74"/>
      <point x="784" y="92" type="curve" smooth="yes"/>
      <point x="784" y="108"/>
      <point x="790" y="135"/>
      <point x="798" y="178" type="curve" smooth="yes"/>
      <point x="824" y="311" type="line" smooth="yes"/>
      <point x="832" y="352"/>
      <point x="835" y="380"/>
      <point x="835" y="402" type="curve" smooth="yes"/>
      <point x="835" y="475"/>
      <point x="791" y="520"/>
      <point x="719" y="520" type="curve" smooth="yes"/>
      <point x="645" y="520"/>
      <point x="591" y="477"/>
      <point x="540" y="408" type="curve"/>
      <point x="537" y="478"/>
      <point x="494" y="520"/>
      <point x="425" y="520" type="curve" smooth="yes"/>
      <point x="350" y="520"/>
      <point x="296" y="475"/>
      <point x="244" y="404" type="curve"/>
      <point x="261" y="510" type="line"/>
      <point x="59" y="510" type="line"/>
      <point x="49" y="453" type="line"/>
      <point x="62" y="451" type="line" smooth="yes"/>
      <point x="102" y="445"/>
      <point x="122" y="438"/>
      <point x="118" y="412" type="curve" smooth="yes"/>
      <point x="44" y="0" type="line"/>
    </contour>
    <contour>
      <point x="439" y="-10" type="move" name="bottom"/>
    </contour>
  </outline>
</glyph>
<glyph name="n" format="1">
  <advance width="636"/>
  <unicode hex="006E"/>
  <outline>
    <contour>
      <point x="182" y="0" type="line"/>
      <point x="240" y="334" type="line"/>
      <point x="288" y="402"/>
      <point x="334" y="437"/>
      <point x="379" y="437" type="curve" smooth="yes"/>
      <point x="414" y="437"/>
      <point x="427" y="417"/>
      <point x="427" y="386" type="curve" smooth="yes"/>
      <point x="427" y="369"/>
      <point x="424" y="349"/>
      <point x="417" y="317" type="curve" smooth="yes"/>
      <point x="394" y="199" type="line" smooth="yes"/>
      <point x="382" y="140"/>
      <point x="378" y="114"/>
      <point x="378" y="87" type="curve" smooth="yes"/>
      <point x="378" y="23"/>
      <point x="423" y="-9"/>
      <point x="489" y="-9" type="curve" smooth="yes"/>
      <point x="534" y="-9"/>
      <point x="573" y="6"/>
      <point x="594" y="21" type="curve"/>
      <point x="606" y="82" type="line"/>
      <point x="597" y="79"/>
      <point x="570" y="66"/>
      <point x="545" y="66" type="curve" smooth="yes"/>
      <point x="525" y="66"/>
      <point x="515" y="74"/>
      <point x="515" y="92" type="curve" smooth="yes"/>
      <point x="515" y="108"/>
      <point x="521" y="135"/>
      <point x="529" y="178" type="curve" smooth="yes"/>
      <point x="555" y="311" type="line" smooth="yes"/>
      <point x="563" y="352"/>
      <point x="566" y="380"/>
      <point x="566" y="402" type="curve" smooth="yes"/>
      <point x="566" y="475"/>
      <point x="518" y="520"/>
      <point x="439" y="520" type="curve" smooth="yes"/>
      <point x="358" y="520"/>
      <point x="299" y="475"/>
      <point x="244" y="402" type="curve"/>
      <point x="261" y="510" type="line"/>
      <point x="59" y="510" type="line"/>
      <point x="49" y="453" type="line"/>
      <point x="62" y="451" type="line" smooth="yes"/>
      <point x="102" y="445"/>
      <point x="122" y="438"/>
      <point x="118" y="412" type="curve" smooth="yes"/>
      <point x="44" y="0" type="line"/>
    </contour>
    <contour>
      <point x="312" y="551" type="move" name="top"/>
    </contour>
    <contour>
      <point x="319" y="0" type="move" name="bottom"/>
    </contour>
  </outline>
</glyph>
<glyph name="v" format="1">
  <advance width="532"/>
  <unicode hex="0076"/>
  <outline>
    <contour>
      <point x="290" y="0" type="line"/>
      <point x="540" y="499" type="line"/>
      <point x="540" y="510" type="line"/>
      <point x="434" y="510" type="line"/>
      <point x="266" y="88" type="line"/>
      <point x="212" y="510" type="line"/>
      <point x="30" y="510" type="line"/>
      <point x="21" y="453" type="line"/>
      <point x="30" y="451" type="line" smooth="yes"/>
      <point x="69" y="443"/>
      <point x="88" y="438"/>
      <point x="92" y="412" type="curve" smooth="yes"/>
      <point x="152" y="0" type="line"/>
    </contour>
  </outline>
</glyph>
<glyph name="w" format="1">
  <advance width="800"/>
  <unicode hex="0077"/>
  <outline>
    <contour>
      <point x="92" y="412" type="curve" smooth="yes"/>
      <point x="131" y="0" type="line"/>
      <point x="258" y="0" type="line"/>
      <point x="410" y="352" type="line"/>
      <point x="460" y="0" type="line"/>
      <point x="584" y="0" type="line"/>
      <point x="808" y="499" type="line"/>
      <point x="808" y="510" type="line"/>
      <point x="703" y="510" type="line"/>
      <point x="563" y="101" type="line"/>
      <point x="509" y="510" type="line"/>
      <point x="402" y="510" type="line"/>
      <point x="239" y="113" type="line"/>
      <point x="208" y="510" type="line"/>
      <point x="30" y="510" type="line"/>
      <point x="21" y="453" type="line"/>
      <point x="30" y="451" type="line" smooth="yes"/>
      <point x="69" y="443"/>
      <point x="89" y="438"/>
    </contour>
  </outline>
</glyph>
<glyph name="yen" format="1">
  <advance width="560"/>
  <unicode hex="00A5"/>
  <outline>
    <contour>
      <point x="62" y="0" type="line"/>
      <point x="379" y="0" type="line"/>
      <point x="390" y="58" type="line"/>
      <point x="373" y="58" type="line" smooth="yes"/>
      <point x="332" y="58"/>
      <point x="303" y="65"/>
      <point x="308" y="94" type="curve" smooth="yes"/>
      <point x="320" y="164" type="line"/>
      <point x="473" y="164" type="line"/>
      <point x="484" y="231" type="line"/>
      <point x="332" y="231" type="line"/>
      <point x="343" y="294" type="line"/>
      <point x="496" y="294" type="line"/>
      <point x="507" y="361" type="line"/>
      <point x="356" y="361" type="line"/>
      <point x="531" y="611" type="line" smooth="yes"/>
      <point x="556" y="647"/>
      <point x="578" y="652"/>
      <point x="603" y="652" type="curve" smooth="yes"/>
      <point x="607" y="652" type="line"/>
      <point x="618" y="710" type="line"/>
      <point x="414" y="710" type="line"/>
      <point x="403" y="652" type="line"/>
      <point x="414" y="652" type="line" smooth="yes"/>
      <point x="443" y="652"/>
      <point x="474" y="645"/>
      <point x="472" y="634" type="curve"/>
      <point x="328" y="420" type="line"/>
      <point x="251" y="642" type="line"/>
      <point x="253" y="649"/>
      <point x="285" y="652"/>
      <point x="312" y="652" type="curve" smooth="yes"/>
      <point x="325" y="652" type="line"/>
      <point x="336" y="710" type="line"/>
      <point x="71" y="710" type="line"/>
      <point x="60" y="652" type="line"/>
      <point x="64" y="652" type="line" smooth="yes"/>
      <point x="89" y="652"/>
      <point x="108" y="650"/>
      <point x="117" y="626" type="curve" smooth="yes"/>
      <point x="213" y="361" type="line"/>
      <point x="62" y="361" type="line"/>
      <point x="50" y="294" type="line"/>
      <point x="201" y="294" type="line"/>
      <point x="190" y="231" type="line"/>
      <point x="39" y="231" type="line"/>
      <point x="27" y="164" type="line"/>
      <point x="178" y="164" type="line"/>
      <point x="166" y="94" type="line" smooth="yes"/>
      <point x="161" y="65"/>
      <point x="130" y="58"/>
      <point x="89" y="58" type="curve" smooth="yes"/>
      <point x="73" y="58" type="line"/>
    </contour>
  </outline>
</glyph>
<glyph name="dieresis" format="1">
  <advance width="500"/>
  <unicode hex="00A8"/>
  <outline>
    <contour>
      <point x="176" y="596" type="curve" smooth="yes"/>
      <point x="224" y="596"/>
      <point x="256" y="625"/>
      <point x="256" y="671" type="curve" smooth="yes"/>
      <point x="256" y="714"/>
      <point x="225" y="740"/>
      <point x="179" y="740" type="curve" smooth="yes"/>
      <point x="131" y="740"/>
      <point x="100" y="712"/>
      <point x="100" y="667" type="curve" smooth="yes"/>
      <point x="100" y="623"/>
      <point x="130" y="596"/>
    </contour>
    <contour>
      <point x="406" y="596" type="curve" smooth="yes"/>
      <point x="454" y="596"/>
      <point x="485" y="625"/>
      <point x="485" y="671" type="curve" smooth="yes"/>
      <point x="485" y="714"/>
      <point x="455" y="740"/>
      <point x="409" y="740" type="curve" smooth="yes"/>
      <point x="361" y="740"/>
      <point x="330" y="712"/>
      <point x="330" y="667" type="curve" smooth="yes"/>
      <point x="330" y="623"/>
      <point x="360" y="596"/>
    </contour>
    <contour>
      <point x="250" y="526" type="move" name="_top"/>
    </contour>
  </outline>
</glyph>
<glyph name="ordmasculine" format="1">
  <advance width="524"/>
  <unicode hex="00BA"/>
  <outline>
    <contour>
      <point x="268" y="310" type="curve" smooth="yes"/>
      <point x="404" y="310"/>
      <point x="502" y="397"/>
      <point x="502" y="536" type="curve" smooth="yes"/>
      <point x="502" y="649"/>
      <point x="417" y="720"/>
      <point x="302" y="720" type="curve" smooth="yes"/>
      <point x="167" y="720"/>
      <point x="69" y="631"/>
      <point x="69" y="493" type="curve" smooth="yes"/>
      <point x="69" y="380"/>
      <point x="155" y="310"/>
    </contour>
    <contour>
      <point x="303" y="658" type="curve"/>
      <point x="352" y="658"/>
      <point x="380" y="622"/>
      <point x="380" y="560" type="curve" smooth="yes"/>
      <point x="380" y="535"/>
      <point x="377" y="511"/>
      <point x="370" y="484" type="curve" smooth="yes"/>
      <point x="353" y="415"/>
      <point x="321" y="372"/>
      <point x="268" y="372" type="curve" smooth="yes"/>
      <point x="219" y="372"/>
      <point x="191" y="408"/>
      <point x="191" y="470" type="curve" smooth="yes"/>
      <point x="191" y="495"/>
      <point x="194" y="519"/>
      <point x="200" y="546" type="curve" smooth="yes"/>
      <point x="217" y="615"/>
      <point x="250" y="658"/>
    </contour>
  </outline>
</glyph>
<glyph name="AE" format="1">
  <advance width="985"/>
  <unicode hex="00C6"/>
  <outline>
    <contour>
      <point x="-50" y="0" type="line"/>
      <point x="177" y="0" type="line"/>
      <point x="188" y="58" type="line"/>
      <point x="174" y="58" type="line" smooth="yes"/>
      <point x="138" y="58"/>
      <point x="103" y="65"/>
      <point x="105" y="76" type="curve"/>
      <point x="226" y="238" type="line"/>
      <point x="453" y="238" type="line"/>
      <point x="428" y="95" type="line" smooth="yes"/>
      <point x="422" y="64"/>
      <point x="389" y="58"/>
      <point x="350" y="58" type="curve" smooth="yes"/>
      <point x="339" y="58" type="line"/>
      <point x="328" y="0" type="line"/>
      <point x="881" y="0" type="line"/>
      <point x="920" y="221" type="line"/>
      <point x="847" y="221" type="line"/>
      <point x="815" y="111" type="line" smooth="yes"/>
      <point x="804" y="75"/>
      <point x="771" y="68"/>
      <point x="688" y="68" type="curve" smooth="yes"/>
      <point x="568" y="68" type="line"/>
      <point x="615" y="333" type="line"/>
      <point x="815" y="323" type="line"/>
      <point x="830" y="403" type="line"/>
      <point x="626" y="394" type="line"/>
      <point x="670" y="642" type="line"/>
      <point x="764" y="642" type="line" smooth="yes"/>
      <point x="839" y="642"/>
      <point x="873" y="635"/>
      <point x="871" y="599" type="curve" smooth="yes"/>
      <point x="866" y="514" type="line"/>
      <point x="938" y="514" type="line"/>
      <point x="969" y="710" type="line"/>
      <point x="354" y="710" type="line"/>
      <point x="343" y="652" type="line"/>
      <point x="354" y="652" type="line" smooth="yes"/>
      <point x="395" y="652"/>
      <point x="432" y="645"/>
      <point x="429" y="620" type="curve"/>
      <point x="38" y="101" type="line" smooth="yes"/>
      <point x="13" y="68"/>
      <point x="-2" y="58"/>
      <point x="-34" y="58" type="curve" smooth="yes"/>
      <point x="-39" y="58" type="line"/>
    </contour>
    <contour>
      <point x="273" y="302" type="line"/>
      <point x="525" y="639" type="line"/>
      <point x="465" y="302" type="line"/>
    </contour>
  </outline>
</glyph>
<glyph name="Eth" format="1">
  <advance width="784"/>
  <unicode hex="00D0"/>
  <outline>
    <contour>
      <point x="46" y="389" type="line"/>
      <point x="33" y="321" type="line"/>
      <point x="122" y="321" type="line"/>
      <point x="82" y="94" type="line" smooth="yes"/>
      <point x="77" y="65"/>
      <point x="46" y="58"/>
      <point x="4" y="58" type="curve" smooth="yes"/>
      <point x="-7" y="58" type="line"/>
      <point x="-18" y="0" type="line"/>
      <point x="314" y="0" type="line" smooth="yes"/>
      <point x="597" y="0"/>
      <point x="751" y="178"/>
      <point x="751" y="403" type="curve" smooth="yes"/>
      <point x="751" y="598"/>
      <point x="606" y="710"/>
      <point x="376" y="710" type="curve" smooth="yes"/>
      <point x="108" y="710" type="line"/>
      <point x="97" y="652" type="line"/>
      <point x="109" y="652" type="line" smooth="yes"/>
      <point x="150" y="652"/>
      <point x="179" y="643"/>
      <point x="174" y="616" type="curve" smooth="yes"/>
      <point x="134" y="389" type="line"/>
    </contour>
    <contour>
      <point x="373" y="640" type="line" smooth="yes"/>
      <point x="526" y="640"/>
      <point x="599" y="565"/>
      <point x="599" y="417" type="curve" smooth="yes"/>
      <point x="599" y="220"/>
      <point x="502" y="70"/>
      <point x="308" y="70" type="curve" smooth="yes"/>
      <point x="222" y="70" type="line"/>
      <point x="267" y="321" type="line"/>
      <point x="429" y="321" type="line"/>
      <point x="442" y="389" type="line"/>
      <point x="279" y="389" type="line"/>
      <point x="324" y="640" type="line"/>
    </contour>
  </outline>
</glyph>
<glyph name="eth" format="1">
  <advance width="612"/>
  <unicode hex="00F0"/>
  <outline>
    <contour>
      <point x="281" y="-13" type="curve" smooth="yes"/>
      <point x="461" y="-13"/>
      <point x="575" y="138"/>
      <point x="575" y="341" type="curve" smooth="yes"/>
      <point x="575" y="450"/>
      <point x="541" y="552"/>
      <point x="446" y="635" type="curve"/>
      <point x="546" y="669" type="line"/>
      <point x="532" y="722" type="line"/>
      <point x="394" y="675" type="line"/>
      <point x="354" y="702"/>
      <point x="307" y="727"/>
      <point x="250" y="749" type="curve"/>
      <point x="207" y="700" type="line"/>
      <point x="246" y="684"/>
      <point x="280" y="666"/>
      <point x="307" y="646" type="curve"/>
      <point x="165" y="598" type="line"/>
      <point x="179" y="545" type="line"/>
      <point x="356" y="605" type="line"/>
      <point x="394" y="565"/>
      <point x="417" y="520"/>
      <point x="429" y="469" type="curve"/>
      <point x="401" y="502"/>
      <point x="358" y="520"/>
      <point x="302" y="520" type="curve" smooth="yes"/>
      <point x="150" y="520"/>
      <point x="36" y="400"/>
      <point x="36" y="230" type="curve" smooth="yes"/>
      <point x="36" y="84"/>
      <point x="136" y="-13"/>
    </contour>
    <contour>
      <point x="176" y="197" type="curve" smooth="yes"/>
      <point x="176" y="238"/>
      <point x="184" y="283"/>
      <point x="199" y="324" type="curve" smooth="yes"/>
      <point x="225" y="401"/>
      <point x="270" y="451"/>
      <point x="332" y="451" type="curve" smooth="yes"/>
      <point x="379" y="451"/>
      <point x="412" y="429"/>
      <point x="438" y="384" type="curve"/>
      <point x="438" y="382"/>
      <point x="438" y="380"/>
      <point x="438" y="378" type="curve" smooth="yes"/>
      <point x="438" y="338"/>
      <point x="434" y="298"/>
      <point x="427" y="261" type="curve" smooth="yes"/>
      <point x="405" y="127"/>
      <point x="354" y="56"/>
      <point x="282" y="56" type="curve" smooth="yes"/>
      <point x="217" y="56"/>
      <point x="176" y="103"/>
    </contour>
  </outline>
</glyph>
<glyph name="iogonek" format="1">
  <advance width="322"/>
  <unicode hex="012F"/>
  <outline>
    <contour>
      <point x="243" y="37" type="curve"/>
      <point x="89" y="-24"/>
      <point x="15" y="-71"/>
      <point x="15" y="-145" type="curve" smooth="yes"/>
      <point x="15" y="-207"/>
      <point x="65" y="-239"/>
      <point x="135" y="-239" type="curve" smooth="yes"/>
      <point x="189" y="-239"/>
      <point x="226" y="-216"/>
      <point x="254" y="-187" type="curve"/>
      <point x="226" y="-144" type="line"/>
      <point x="213" y="-156"/>
      <point x="194" y="-171"/>
      <point x="173" y="-171" type="curve" smooth="yes"/>
      <point x="150" y="-171"/>
      <point x="136" y="-159"/>
      <point x="136" y="-131" type="curve" smooth="yes"/>
      <point x="136" y="-92"/>
      <point x="158" y="-49"/>
      <point x="266" y="11" type="curve"/>
      <point x="261" y="17"/>
      <point x="249" y="25"/>
    </contour>
    <component base="i"/>
  </outline>
</glyph>
<glyph name="IJ" format="1">
  <advance width="972"/>
  <unicode hex="0132"/>
  <outline>
    <contour>
      <point x="96" y="652" type="line"/>
      <point x="107" y="652" type="line" smooth="yes"/>
      <point x="148" y="652"/>
      <point x="178" y="645"/>
      <point x="173" y="616" type="curve" smooth="yes"/>
      <point x="81" y="91" type="line" smooth="yes"/>
      <point x="76" y="64"/>
      <point x="43" y="58"/>
      <point x="3" y="58" type="curve" smooth="yes"/>
      <point x="-7" y="58" type="line"/>
      <point x="-18" y="0" type="line"/>
      <point x="292" y="0" type="line"/>
      <point x="302" y="58" type="line"/>
      <point x="292" y="58" type="line" smooth="yes"/>
      <point x="250" y="58"/>
      <point x="221" y="65"/>
      <point x="226" y="94" type="curve" smooth="yes"/>
      <point x="318" y="619" type="line" smooth="yes"/>
      <point x="323" y="646"/>
      <point x="356" y="652"/>
      <point x="395" y="652" type="curve" smooth="yes"/>
      <point x="406" y="652" type="line"/>
      <point x="417" y="710" type="line"/>
      <point x="107" y="710" type="line"/>
    </contour>
    <contour>
      <point x="572" y="-10" type="curve" smooth="yes"/>
      <point x="718" y="-10"/>
      <point x="804" y="60"/>
      <point x="833" y="226" type="curve" smooth="yes"/>
      <point x="902" y="616" type="line" smooth="yes"/>
      <point x="907" y="645"/>
      <point x="939" y="652"/>
      <point x="980" y="652" type="curve" smooth="yes"/>
      <point x="991" y="652" type="line"/>
      <point x="1001" y="710" type="line"/>
      <point x="679" y="710" type="line"/>
      <point x="669" y="652" type="line"/>
      <point x="689" y="652" type="line" smooth="yes"/>
      <point x="732" y="652"/>
      <point x="762" y="645"/>
      <point x="757" y="616" type="curve" smooth="yes"/>
      <point x="690" y="233" type="line" smooth="yes"/>
      <point x="668" y="107"/>
      <point x="628" y="63"/>
      <point x="564" y="63" type="curve" smooth="yes"/>
      <point x="531" y="63"/>
      <point x="507" y="73"/>
      <point x="490" y="90" type="curve"/>
      <point x="507" y="192" type="line"/>
      <point x="389" y="192" type="line"/>
      <point x="367" y="69" type="line"/>
      <point x="402" y="29"/>
      <point x="470" y="-10"/>
    </contour>
  </outline>
</glyph>
<glyph name="Ldot" format="1">
  <advance width="641"/>
  <unicode hex="013F"/>
  <outline>
    <contour>
      <point x="-18" y="0" type="line"/>
      <point x="535" y="0" type="line"/>
      <point x="574" y="227" type="line"/>
      <point x="497" y="227" type="line"/>
      <point x="467" y="112" type="line" smooth="yes"/>
      <point x="457" y="76"/>
      <point x="422" y="69"/>
      <point x="339" y="69" type="curve" smooth="yes"/>
      <point x="222" y="69" type="line"/>
      <point x="319" y="619" type="line" smooth="yes"/>
      <point x="324" y="646"/>
      <point x="358" y="652"/>
      <point x="400" y="652" type="curve" smooth="yes"/>
      <point x="412" y="652" type="line"/>
      <point x="423" y="710" type="line"/>
      <point x="108" y="710" type="line"/>
      <point x="97" y="652" type="line"/>
      <point x="108" y="652" type="line" smooth="yes"/>
      <point x="149" y="652"/>
      <point x="178" y="645"/>
      <point x="173" y="616" type="curve" smooth="yes"/>
      <point x="81" y="91" type="line" smooth="yes"/>
      <point x="76" y="64"/>
      <point x="43" y="58"/>
      <point x="3" y="58" type="curve" smooth="yes"/>
      <point x="-7" y="58" type="line"/>
    </contour>
    <component base="periodcentered" xOffset="392" yOffset="39"/>
  </outline>
</glyph>
<glyph name="tbar" format="1">
  <advance width="397"/>
  <unicode hex="0167"/>
  <outline>
    <contour>
      <point x="376" y="334" type="line"/>
      <point x="24" y="334" type="line"/>
      <point x="12" y="272" type="line"/>
      <point x="364" y="272" type="line"/>
    </contour>
    <component base="t" xOffset="8"/>
  </outline>
</glyph>
<glyph name="Ohorn" format="1">
  <advance width="789"/>
  <unicode hex="01A0"/>
  <outline>
    <contour>
      <point x="755" y="394" type="curve" smooth="yes"/>
      <point x="755" y="515"/>
      <point x="697" y="618"/>
      <point x="579" y="674" type="curve"/>
      <point x="730" y="675"/>
      <point x="820" y="729"/>
      <point x="834" y="877" type="curve"/>
      <point x="724" y="877" type="line"/>
      <point x="711" y="757"/>
      <point x="630" y="720"/>
      <point x="430" y="720" type="curve"/>
      <point x="191" y="720"/>
      <point x="38" y="539"/>
      <point x="38" y="316" type="curve" smooth="yes"/>
      <point x="38" y="130"/>
      <point x="168" y="-10"/>
      <point x="363" y="-10" type="curve" smooth="yes"/>
      <point x="601" y="-10"/>
      <point x="755" y="171"/>
    </contour>
    <contour>
      <point x="190" y="291" type="curve" smooth="yes"/>
      <point x="190" y="465"/>
      <point x="273" y="647"/>
      <point x="429" y="647" type="curve" smooth="yes"/>
      <point x="545" y="647"/>
      <point x="603" y="556"/>
      <point x="603" y="419" type="curve" smooth="yes"/>
      <point x="603" y="245"/>
      <point x="519" y="63"/>
      <point x="364" y="63" type="curve" smooth="yes"/>
      <point x="247" y="63"/>
      <point x="190" y="154"/>
    </contour>
    <contour>
      <point x="382" y="742" type="move" name="top"/>
    </contour>
  </outline>
</glyph>
<glyph name="Uhorn" format="1">
  <advance width="817"/>
  <unicode hex="01AF"/>
  <outline>
    <contour>
      <point x="567" y="710" type="line"/>
      <point x="557" y="652" type="line"/>
      <point x="566" y="652" type="line" smooth="yes"/>
      <point x="597" y="652"/>
      <point x="638" y="645"/>
      <point x="636" y="631" type="curve" smooth="yes"/>
      <point x="575" y="290" type="line" smooth="yes"/>
      <point x="548" y="135"/>
      <point x="489" y="73"/>
      <point x="388" y="73" type="curve" smooth="yes"/>
      <point x="299" y="73"/>
      <point x="241" y="113"/>
      <point x="241" y="206" type="curve" smooth="yes"/>
      <point x="241" y="235"/>
      <point x="246" y="273"/>
      <point x="254" y="319" type="curve" smooth="yes"/>
      <point x="311" y="642" type="line" smooth="yes"/>
      <point x="312" y="649"/>
      <point x="354" y="652"/>
      <point x="386" y="652" type="curve" smooth="yes"/>
      <point x="395" y="652" type="line"/>
      <point x="405" y="710" type="line"/>
      <point x="93" y="710" type="line"/>
      <point x="84" y="652" type="line"/>
      <point x="94" y="652" type="line" smooth="yes"/>
      <point x="134" y="652"/>
      <point x="164" y="646"/>
      <point x="160" y="619" type="curve" smooth="yes"/>
      <point x="111" y="335" type="line" smooth="yes"/>
      <point x="102" y="286"/>
      <point x="97" y="248"/>
      <point x="97" y="211" type="curve" smooth="yes"/>
      <point x="97" y="62"/>
      <point x="201" y="-10"/>
      <point x="353" y="-10" type="curve" smooth="yes"/>
      <point x="506" y="-10"/>
      <point x="614" y="76"/>
      <point x="650" y="278" type="curve" smooth="yes"/>
      <point x="708" y="607" type="line" smooth="yes"/>
      <point x="714" y="637"/>
      <point x="729" y="646"/>
      <point x="759" y="654" type="curve" smooth="yes"/>
      <point x="849" y="679"/>
      <point x="918" y="725"/>
      <point x="939" y="877" type="curve"/>
      <point x="828" y="877" type="line"/>
      <point x="808" y="746"/>
      <point x="784" y="710"/>
      <point x="662" y="710" type="curve" smooth="yes"/>
    </contour>
    <contour>
      <point x="404" y="663" type="move" name="top"/>
    </contour>
  </outline>
</glyph>
<glyph name="breve" format="1">
  <advance width="500"/>
  <unicode hex="02D8"/>
  <outline>
    <contour>
      <point x="274" y="571" type="curve" smooth="yes"/>
      <point x="359" y="571"/>
      <point x="425" y="615"/>
      <point x="438" y="740" type="curve"/>
      <point x="367" y="740" type="line"/>
      <point x="355" y="684"/>
      <point x="333" y="661"/>
      <point x="281" y="661" type="curve" smooth="yes"/>
      <point x="225" y="661"/>
      <point x="209" y="690"/>
      <point x="212" y="740" type="curve"/>
      <point x="137" y="740" type="line"/>
      <point x="135" y="731"/>
      <point x="134" y="719"/>
      <point x="134" y="708" type="curve" smooth="yes"/>
      <point x="133" y="621"/>
      <point x="185" y="571"/>
    </contour>
    <contour>
      <point x="250" y="517" type="move" name="_top"/>
    </contour>
  </outline>
</glyph>
<glyph name="ogonek" format="1">
  <advance width="600"/>
  <unicode hex="02DB"/>
  <outline>
    <contour>
      <point x="442" y="38" type="curve"/>
      <point x="279" y="-24"/>
      <point x="205" y="-71"/>
      <point x="205" y="-146" type="curve" smooth="yes"/>
      <point x="205" y="-207"/>
      <point x="255" y="-239"/>
      <point x="325" y="-239" type="curve" smooth="yes"/>
      <point x="379" y="-239"/>
      <point x="416" y="-216"/>
      <point x="443" y="-187" type="curve"/>
      <point x="415" y="-144" type="line"/>
      <point x="403" y="-156"/>
      <point x="384" y="-171"/>
      <point x="362" y="-171" type="curve" smooth="yes"/>
      <point x="340" y="-171"/>
      <point x="326" y="-159"/>
      <point x="326" y="-132" type="curve" smooth="yes"/>
      <point x="326" y="-93"/>
      <point x="348" y="-49"/>
      <point x="466" y="11" type="curve"/>
      <point x="461" y="17"/>
      <point x="448" y="26"/>
    </contour>
    <contour>
      <point x="355" y="9" type="move" name="_right"/>
    </contour>
  </outline>
</glyph>
<glyph name="pi" format="1">
  <advance width="737"/>
  <unicode hex="03C0"/>
  <outline>
    <contour>
      <point x="272" y="0" type="line"/>
      <point x="343" y="403" type="line"/>
      <point x="483" y="403" type="line"/>
      <point x="434" y="204"/>
      <point x="402" y="161"/>
      <point x="402" y="95" type="curve" smooth="yes"/>
      <point x="402" y="29"/>
      <point x="447" y="-10"/>
      <point x="525" y="-10" type="curve" smooth="yes"/>
      <point x="600" y="-10"/>
      <point x="649" y="31"/>
      <point x="680" y="97" type="curve"/>
      <point x="632" y="134" type="line"/>
      <point x="612" y="97"/>
      <point x="590" y="71"/>
      <point x="560" y="71" type="curve" smooth="yes"/>
      <point x="538" y="71"/>
      <point x="529" y="80"/>
      <point x="529" y="100" type="curve" smooth="yes"/>
      <point x="529" y="115"/>
      <point x="532" y="131"/>
      <point x="538" y="165" type="curve" smooth="yes"/>
      <point x="580" y="403" type="line"/>
      <point x="702" y="403" type="line"/>
      <point x="721" y="510" type="line"/>
      <point x="294" y="510" type="line" smooth="yes"/>
      <point x="147" y="510"/>
      <point x="74" y="438"/>
      <point x="38" y="329" type="curve"/>
      <point x="109" y="290" type="line"/>
      <point x="134" y="362"/>
      <point x="170" y="400"/>
      <point x="251" y="403" type="curve"/>
      <point x="205" y="198"/>
      <point x="177" y="164"/>
      <point x="148" y="0" type="curve"/>
    </contour>
  </outline>
</glyph>
<glyph name="quoteleft" format="1">
  <advance width="256"/>
  <unicode hex="2018"/>
  <outline>
    <contour>
      <point x="213.0" y="724.0" type="line"/>
      <point x="125.0" y="658.0"/>
      <point x="61.0" y="559.0"/>
      <point x="61.0" y="482.0" type="curve" smooth="yes"/>
      <point x="61.0" y="429.0"/>
      <point x="97.0" y="399.0"/>
      <point x="144.0" y="399.0" type="curve" smooth="yes"/>
      <point x="192.0" y="399.0"/>
      <point x="222.0" y="430.0"/>
      <point x="222.0" y="470.0" type="curve" smooth="yes"/>
      <point x="222.0" y="510.0"/>
      <point x="187.0" y="539.0"/>
      <point x="140.0" y="539.0" type="curve" smooth="yes"/>
      <point x="133.0" y="539.0"/>
      <point x="127.0" y="538.0"/>
      <point x="122.0" y="529.0" type="curve"/>
      <point x="130.0" y="527.0"/>
      <point x="133.0" y="515.0"/>
      <point x="134.0" y="516.0" type="curve"/>
      <point x="147.0" y="571.0"/>
      <point x="212.0" y="629.0"/>
      <point x="283.0" y="670.0" type="curve"/>
    </contour>
  </outline>
</glyph>
<glyph name="perthousand" format="1">
  <advance width="1173"/>
  <unicode hex="2030"/>
  <outline>
    <contour>
      <point x="242" y="720" type="curve" smooth="yes"/>
      <point x="125" y="720"/>
      <point x="60" y="631"/>
      <point x="60" y="531" type="curve" smooth="yes"/>
      <point x="60" y="438"/>
      <point x="119" y="379"/>
      <point x="210" y="379" type="curve" smooth="yes"/>
      <point x="327" y="379"/>
      <point x="392" y="468"/>
      <point x="392" y="568" type="curve" smooth="yes"/>
      <point x="392" y="660"/>
      <point x="334" y="720"/>
    </contour>
    <contour>
      <point x="240" y="664" type="curve" smooth="yes"/>
      <point x="276" y="664"/>
      <point x="295" y="638"/>
      <point x="295" y="588" type="curve" smooth="yes"/>
      <point x="295" y="524"/>
      <point x="267" y="435"/>
      <point x="213" y="435" type="curve"/>
      <point x="177" y="435"/>
      <point x="158" y="461"/>
      <point x="158" y="511" type="curve" smooth="yes"/>
      <point x="158" y="575"/>
      <point x="186" y="664"/>
    </contour>
    <contour>
      <point x="610" y="331" type="curve" smooth="yes"/>
      <point x="493" y="331"/>
      <point x="428" y="242"/>
      <point x="428" y="142" type="curve" smooth="yes"/>
      <point x="428" y="50"/>
      <point x="487" y="-10"/>
      <point x="578" y="-10" type="curve" smooth="yes"/>
      <point x="695" y="-10"/>
      <point x="760" y="79"/>
      <point x="760" y="179" type="curve" smooth="yes"/>
      <point x="760" y="272"/>
      <point x="702" y="331"/>
    </contour>
    <contour>
      <point x="981" y="331" type="curve" smooth="yes"/>
      <point x="864" y="331"/>
      <point x="799" y="242"/>
      <point x="799" y="142" type="curve" smooth="yes"/>
      <point x="799" y="50"/>
      <point x="858" y="-10"/>
      <point x="949" y="-10" type="curve" smooth="yes"/>
      <point x="1066" y="-10"/>
      <point x="1131" y="79"/>
      <point x="1131" y="179" type="curve" smooth="yes"/>
      <point x="1131" y="272"/>
      <point x="1073" y="331"/>
    </contour>
    <contour>
      <point x="608" y="275" type="curve" smooth="yes"/>
      <point x="644" y="275"/>
      <point x="663" y="249"/>
      <point x="663" y="199" type="curve" smooth="yes"/>
      <point x="663" y="135"/>
      <point x="635" y="46"/>
      <point x="581" y="46" type="curve"/>
      <point x="545" y="46"/>
      <point x="526" y="72"/>
      <point x="526" y="122" type="curve" smooth="yes"/>
      <point x="526" y="186"/>
      <point x="554" y="275"/>
    </contour>
    <contour>
      <point x="979" y="275" type="curve" smooth="yes"/>
      <point x="1015" y="275"/>
      <point x="1034" y="249"/>
      <point x="1034" y="199" type="curve" smooth="yes"/>
      <point x="1034" y="135"/>
      <point x="1006" y="46"/>
      <point x="952" y="46" type="curve"/>
      <point x="916" y="46"/>
      <point x="897" y="72"/>
      <point x="897" y="122" type="curve" smooth="yes"/>
      <point x="897" y="186"/>
      <point x="925" y="275"/>
    </contour>
    <component base="fraction" xOffset="190"/>
  </outline>
</glyph>
<glyph name="peseta" format="1">
  <advance width="560"/>
  <unicode hex="20A7"/>
  <outline>
    <contour>
      <point x="-42" y="0" type="line"/>
      <point x="150" y="0" type="line"/>
      <point x="161" y="58" type="line"/>
      <point x="152" y="58" type="line" smooth="yes"/>
      <point x="135" y="58"/>
      <point x="109" y="61"/>
      <point x="110" y="67" type="curve" smooth="yes"/>
      <point x="143" y="255" type="line"/>
      <point x="168" y="255" type="line" smooth="yes"/>
      <point x="274" y="255"/>
      <point x="346" y="337"/>
      <point x="374" y="438" type="curve"/>
      <point x="406" y="438" type="line"/>
      <point x="356" y="153" type="line" smooth="yes"/>
      <point x="349" y="118"/>
      <point x="346" y="96"/>
      <point x="346" y="77" type="curve" smooth="yes"/>
      <point x="346" y="17"/>
      <point x="381" y="-11"/>
      <point x="449" y="-11" type="curve" smooth="yes"/>
      <point x="474" y="-11"/>
      <point x="491" y="-7"/>
      <point x="501" y="-3" type="curve"/>
      <point x="513" y="68" type="line"/>
      <point x="506" y="65"/>
      <point x="495" y="63"/>
      <point x="484" y="63" type="curve" smooth="yes"/>
      <point x="462" y="63"/>
      <point x="451" y="72"/>
      <point x="451" y="93" type="curve" smooth="yes"/>
      <point x="451" y="105"/>
      <point x="453" y="120"/>
      <point x="456" y="138" type="curve" smooth="yes"/>
      <point x="510" y="438" type="line"/>
      <point x="577" y="438" type="line"/>
      <point x="589" y="508" type="line"/>
      <point x="522" y="508" type="line"/>
      <point x="547" y="648" type="line"/>
      <point x="464" y="648" type="line"/>
      <point x="450" y="572" type="line"/>
      <point x="450" y="573" type="line"/>
      <point x="441" y="520"/>
      <point x="426" y="505"/>
      <point x="386" y="503" type="curve"/>
      <point x="387" y="514"/>
      <point x="387" y="525"/>
      <point x="387" y="536" type="curve" smooth="yes"/>
      <point x="387" y="647"/>
      <point x="327" y="710"/>
      <point x="212" y="710" type="curve" smooth="yes"/>
      <point x="83" y="710" type="line"/>
      <point x="73" y="652" type="line"/>
      <point x="77" y="652" type="line" smooth="yes"/>
      <point x="95" y="652"/>
      <point x="107" y="646"/>
      <point x="102" y="620" type="curve" smooth="yes"/>
      <point x="8" y="90" type="line" smooth="yes"/>
      <point x="4" y="64"/>
      <point x="-9" y="58"/>
      <point x="-28" y="58" type="curve" smooth="yes"/>
      <point x="-31" y="58" type="line"/>
    </contour>
    <contour>
      <point x="217" y="639" type="line" smooth="yes"/>
      <point x="264" y="639"/>
      <point x="283" y="615"/>
      <point x="283" y="554" type="curve" smooth="yes"/>
      <point x="283" y="532"/>
      <point x="280" y="502"/>
      <point x="275" y="476" type="curve" smooth="yes"/>
      <point x="261" y="390"/>
      <point x="228" y="324"/>
      <point x="173" y="324" type="curve" smooth="yes"/>
      <point x="156" y="324" type="line"/>
      <point x="211" y="639" type="line"/>
    </contour>
  </outline>
</glyph>
<glyph name="Euro" format="1">
  <advance width="560"/>
  <unicode hex="20AC"/>
  <outline>
    <contour>
      <point x="13" y="304" type="line"/>
      <point x="1" y="235" type="line"/>
      <point x="77" y="235" type="line"/>
      <point x="90" y="67"/>
      <point x="185" y="-10"/>
      <point x="305" y="-10" type="curve"/>
      <point x="416" y="-10"/>
      <point x="488" y="57"/>
      <point x="524" y="158" type="curve"/>
      <point x="460" y="196" type="line"/>
      <point x="442" y="146"/>
      <point x="396" y="66"/>
      <point x="322" y="66" type="curve"/>
      <point x="264" y="66"/>
      <point x="215" y="109"/>
      <point x="211" y="235" type="curve"/>
      <point x="352" y="235" type="line"/>
      <point x="364" y="304" type="line"/>
      <point x="213" y="304" type="line"/>
      <point x="216" y="332"/>
      <point x="220" y="361"/>
      <point x="225" y="390" type="curve"/>
      <point x="426" y="390" type="line"/>
      <point x="438" y="459" type="line"/>
      <point x="241" y="459" type="line"/>
      <point x="277" y="582"/>
      <point x="337" y="646"/>
      <point x="410" y="646" type="curve" smooth="yes"/>
      <point x="435" y="646"/>
      <point x="456" y="640"/>
      <point x="471" y="630" type="curve"/>
      <point x="456" y="546" type="line"/>
      <point x="575" y="546" type="line"/>
      <point x="593" y="654" type="line"/>
      <point x="575" y="680"/>
      <point x="515" y="720"/>
      <point x="413" y="720" type="curve" smooth="yes"/>
      <point x="265" y="720"/>
      <point x="150" y="617"/>
      <point x="101" y="459" type="curve"/>
      <point x="40" y="459" type="line"/>
      <point x="28" y="390" type="line"/>
      <point x="85" y="390" type="line"/>
      <point x="80" y="363"/>
      <point x="77" y="334"/>
      <point x="76" y="304" type="curve"/>
    </contour>
  </outline>
</glyph>
<glyph name="trademark" format="1">
  <advance width="883"/>
  <unicode hex="2122"/>
  <outline>
    <contour>
      <point x="109" y="710" type="line"/>
      <point x="89" y="597" type="line"/>
      <point x="133" y="597" type="line"/>
      <point x="146" y="648" type="line" smooth="yes"/>
      <point x="150" y="663"/>
      <point x="166" y="670"/>
      <point x="202" y="670" type="curve" smooth="yes"/>
      <point x="219" y="670" type="line"/>
      <point x="179" y="443" type="line" smooth="yes"/>
      <point x="177" y="430"/>
      <point x="160" y="426"/>
      <point x="143" y="426" type="curve" smooth="yes"/>
      <point x="134" y="426" type="line"/>
      <point x="127" y="387" type="line"/>
      <point x="294" y="387" type="line"/>
      <point x="300" y="426" type="line"/>
      <point x="290" y="426" type="line" smooth="yes"/>
      <point x="270" y="426"/>
      <point x="258" y="430"/>
      <point x="260" y="443" type="curve" smooth="yes"/>
      <point x="301" y="670" type="line"/>
      <point x="317" y="670" type="line" smooth="yes"/>
      <point x="354" y="670"/>
      <point x="368" y="663"/>
      <point x="367" y="648" type="curve" smooth="yes"/>
      <point x="362" y="597" type="line"/>
      <point x="406" y="597" type="line"/>
      <point x="426" y="710" type="line"/>
    </contour>
    <contour>
      <point x="402" y="387" type="line"/>
      <point x="520" y="387" type="line"/>
      <point x="526" y="426" type="line"/>
      <point x="524" y="426" type="line" smooth="yes"/>
      <point x="514" y="426"/>
      <point x="497" y="428"/>
      <point x="497" y="431" type="curve" smooth="yes"/>
      <point x="540" y="672" type="line"/>
      <point x="576" y="386" type="line"/>
      <point x="637" y="386" type="line"/>
      <point x="777" y="671" type="line"/>
      <point x="735" y="431" type="line" smooth="yes"/>
      <point x="734" y="428"/>
      <point x="718" y="426"/>
      <point x="707" y="426" type="curve" smooth="yes"/>
      <point x="704" y="426" type="line"/>
      <point x="697" y="387" type="line"/>
      <point x="846" y="387" type="line"/>
      <point x="853" y="426" type="line"/>
      <point x="847" y="426" type="line" smooth="yes"/>
      <point x="828" y="426"/>
      <point x="816" y="430"/>
      <point x="818" y="443" type="curve" smooth="yes"/>
      <point x="856" y="655" type="line" smooth="yes"/>
      <point x="858" y="669"/>
      <point x="872" y="671"/>
      <point x="891" y="671" type="curve" smooth="yes"/>
      <point x="897" y="671" type="line"/>
      <point x="904" y="710" type="line"/>
      <point x="744" y="710" type="line"/>
      <point x="640" y="490" type="line"/>
      <point x="619" y="710" type="line"/>
      <point x="460" y="710" type="line"/>
      <point x="453" y="671" type="line"/>
      <point x="459" y="671" type="line" smooth="yes"/>
      <point x="476" y="671"/>
      <point x="490" y="669"/>
      <point x="488" y="655" type="curve" smooth="yes"/>
      <point x="450" y="443" type="line" smooth="yes"/>
      <point x="448" y="430"/>
      <point x="432" y="426"/>
      <point x="415" y="426" type="curve"/>
      <point x="409" y="426" type="line"/>
    </contour>
  </outline>
</glyph>
<glyph name="partialdiff" format="1">
  <advance width="578"/>
  <unicode hex="2202"/>
  <outline>
    <contour>
      <point x="241" y="-12" type="curve" smooth="yes"/>
      <point x="417" y="-12"/>
      <point x="537" y="189"/>
      <point x="537" y="443" type="curve" smooth="yes"/>
      <point x="537" y="654"/>
      <point x="439" y="747"/>
      <point x="302" y="747" type="curve" smooth="yes"/>
      <point x="249" y="747"/>
      <point x="194" y="732"/>
      <point x="146" y="703" type="curve"/>
      <point x="173" y="647" type="line"/>
      <point x="210" y="666"/>
      <point x="246" y="680"/>
      <point x="284" y="680" type="curve" smooth="yes"/>
      <point x="356" y="680"/>
      <point x="402" y="633"/>
      <point x="406" y="500" type="curve"/>
      <point x="386" y="510"/>
      <point x="359" y="518"/>
      <point x="319" y="518" type="curve" smooth="yes"/>
      <point x="168" y="518"/>
      <point x="37" y="369"/>
      <point x="37" y="204" type="curve" smooth="yes"/>
      <point x="37" y="83"/>
      <point x="102" y="-12"/>
    </contour>
    <contour>
      <point x="171" y="203" type="curve" smooth="yes"/>
      <point x="171" y="345"/>
      <point x="233" y="453"/>
      <point x="323" y="453" type="curve" smooth="yes"/>
      <point x="353" y="453"/>
      <point x="382" y="443"/>
      <point x="405" y="425" type="curve"/>
      <point x="396" y="235"/>
      <point x="341" y="53"/>
      <point x="249" y="53" type="curve" smooth="yes"/>
      <point x="196" y="53"/>
      <point x="171" y="101"/>
    </contour>
  </outline>
</glyph>
<glyph name="minus" format="1">
  <advance width="560"/>
  <unicode hex="2212"/>
  <outline>
    <contour>
      <point x="501" y="386" type="line"/>
      <point x="76" y="386" type="line"/>
      <point x="60" y="296" type="line"/>
      <point x="486" y="296" type="line"/>
    </contour>
  </outline>
</glyph>
<glyph name="radical" format="1">
  <advance width="647"/>
  <unicode hex="221A"/>
  <outline>
    <contour>
      <point x="44" y="312" type="line"/>
      <point x="151" y="312" type="line"/>
      <point x="205" y="0" type="line"/>
      <point x="346" y="0" type="line"/>
      <point x="699" y="710" type="line"/>
      <point x="608" y="710" type="line"/>
      <point x="313" y="103" type="line"/>
      <point x="268" y="389" type="line"/>
      <point x="57" y="389" type="line"/>
    </contour>
  </outline>
</glyph>
<glyph name="approxequal" format="1">
  <advance width="560"/>
  <unicode hex="2248"/>
  <outline>
    <contour>
      <point x="395" y="421" type="curve" smooth="yes"/>
      <point x="341" y="421"/>
      <point x="306" y="495"/>
      <point x="217" y="495" type="curve" smooth="yes"/>
      <point x="137" y="495"/>
      <point x="90" y="443"/>
      <point x="66" y="335" type="curve"/>
      <point x="138" y="314" type="line"/>
      <point x="150" y="365"/>
      <point x="169" y="393"/>
      <point x="205" y="393" type="curve"/>
      <point x="256" y="393"/>
      <point x="286" y="319"/>
      <point x="383" y="319" type="curve" smooth="yes"/>
      <point x="454" y="319"/>
      <point x="506" y="371"/>
      <point x="532" y="480" type="curve"/>
      <point x="461" y="502" type="line"/>
      <point x="445" y="449"/>
      <point x="427" y="421"/>
    </contour>
    <contour>
      <point x="366" y="195" type="curve" smooth="yes"/>
      <point x="312" y="195"/>
      <point x="278" y="270"/>
      <point x="188" y="270" type="curve" smooth="yes"/>
      <point x="108" y="270"/>
      <point x="62" y="217"/>
      <point x="37" y="109" type="curve"/>
      <point x="110" y="89" type="line"/>
      <point x="122" y="139"/>
      <point x="141" y="168"/>
      <point x="177" y="168" type="curve" smooth="yes"/>
      <point x="227" y="168"/>
      <point x="258" y="93"/>
      <point x="354" y="93" type="curve" smooth="yes"/>
      <point x="426" y="93"/>
      <point x="477" y="145"/>
      <point x="503" y="255" type="curve"/>
      <point x="433" y="276" type="line"/>
      <point x="416" y="224"/>
      <point x="399" y="195"/>
    </contour>
  </outline>
</glyph>
<glyph name="Omega" format="1">
  <advance width="834"/>
  <unicode hex="A7B6"/>
  <outline>
    <contour>
      <point x="-3" y="0" type="line"/>
      <point x="321" y="0" type="line"/>
      <point x="341" y="117" type="line"/>
      <point x="292" y="192"/>
      <point x="250" y="282"/>
      <point x="250" y="398" type="curve" smooth="yes"/>
      <point x="250" y="546"/>
      <point x="330" y="647"/>
      <point x="466" y="647" type="curve" smooth="yes"/>
      <point x="577" y="647"/>
      <point x="642" y="583"/>
      <point x="642" y="471" type="curve" smooth="yes"/>
      <point x="642" y="323"/>
      <point x="550" y="212"/>
      <point x="440" y="116" type="curve"/>
      <point x="420" y="0" type="line"/>
      <point x="744" y="0" type="line"/>
      <point x="780" y="206" type="line"/>
      <point x="712" y="206" type="line"/>
      <point x="692" y="140" type="line" smooth="yes"/>
      <point x="680" y="104"/>
      <point x="648" y="97"/>
      <point x="574" y="97" type="curve" smooth="yes"/>
      <point x="512" y="97" type="line"/>
      <point x="655" y="198"/>
      <point x="783" y="304"/>
      <point x="783" y="462" type="curve" smooth="yes"/>
      <point x="783" y="615"/>
      <point x="665" y="720"/>
      <point x="466" y="720" type="curve" smooth="yes"/>
      <point x="249" y="720"/>
      <point x="109" y="587"/>
      <point x="109" y="427" type="curve" smooth="yes"/>
      <point x="109" y="302"/>
      <point x="193" y="185"/>
      <point x="271" y="97" type="curve"/>
      <point x="199" y="97" type="line" smooth="yes"/>
      <point x="119" y="97"/>
      <point x="97" y="108"/>
      <point x="98" y="140" type="curve" smooth="yes"/>
      <point x="100" y="206" type="line"/>
      <point x="32" y="206" type="line"/>
    </contour>
  </outline>
</glyph>
<glyph name="E.alt" format="1">
  <advance width="643"/>
  <outline>
    <contour>
      <point x="470" y="267" type="line"/>
      <point x="505" y="463" type="line"/>
      <point x="448" y="463" type="line"/>
      <point x="447" y="457" type="line" smooth="yes"/>
      <point x="442" y="425"/>
      <point x="426" y="397"/>
      <point x="397" y="397" type="curve"/>
      <point x="280" y="397" type="line"/>
      <point x="324" y="641" type="line"/>
      <point x="423" y="641" type="line" smooth="yes"/>
      <point x="497" y="641"/>
      <point x="531" y="634"/>
      <point x="529" y="598" type="curve" smooth="yes"/>
      <point x="525" y="512" type="line"/>
      <point x="596" y="512" type="line"/>
      <point x="628" y="710" type="line"/>
      <point x="107" y="710" type="line"/>
      <point x="96" y="652" type="line"/>
      <point x="107" y="652" type="line" smooth="yes"/>
      <point x="148" y="652"/>
      <point x="178" y="645"/>
      <point x="173" y="616" type="curve" smooth="yes"/>
      <point x="81" y="95" type="line" smooth="yes"/>
      <point x="76" y="64"/>
      <point x="43" y="58"/>
      <point x="3" y="58" type="curve" smooth="yes"/>
      <point x="-7" y="58" type="line"/>
      <point x="-18" y="0" type="line"/>
      <point x="540" y="0" type="line"/>
      <point x="579" y="223" type="line"/>
      <point x="506" y="223" type="line"/>
      <point x="473" y="112" type="line" smooth="yes"/>
      <point x="463" y="76"/>
      <point x="429" y="69"/>
      <point x="346" y="69" type="curve" smooth="yes"/>
      <point x="222" y="69" type="line"/>
      <point x="269" y="331" type="line"/>
      <point x="387" y="331" type="line"/>
      <point x="417" y="331"/>
      <point x="420" y="304"/>
      <point x="414" y="273" type="curve" smooth="yes"/>
      <point x="413" y="267" type="line"/>
    </contour>
  </outline>
</glyph>
<glyph name="acute.uc" format="1">
  <advance width="500"/>
  <outline>
    <contour>
      <point x="247" y="865" type="curve" smooth="yes"/>
      <point x="185" y="788" type="line"/>
      <point x="181" y="763" type="line"/>
      <point x="221" y="763" type="line"/>
      <point x="305" y="798" type="line" smooth="yes"/>
      <point x="363" y="819"/>
      <point x="393" y="841"/>
      <point x="393" y="879" type="curve" smooth="yes"/>
      <point x="393" y="906"/>
      <point x="372" y="927"/>
      <point x="338" y="927" type="curve" smooth="yes"/>
      <point x="303" y="927"/>
      <point x="279" y="906"/>
    </contour>
    <contour>
      <point x="208" y="727" type="move" name="_top"/>
    </contour>
  </outline>
</glyph>
<glyph name="at.uc" format="1">
  <advance width="914"/>
  <outline>
    <contour>
      <point x="393" y="120" type="curve" smooth="yes"/>
      <point x="443" y="120"/>
      <point x="478" y="144"/>
      <point x="518" y="190" type="curve"/>
      <point x="529" y="147"/>
      <point x="566" y="122"/>
      <point x="637" y="122" type="curve" smooth="yes"/>
      <point x="768" y="122"/>
      <point x="880" y="249"/>
      <point x="880" y="430" type="curve" smooth="yes"/>
      <point x="880" y="619"/>
      <point x="735" y="733"/>
      <point x="519" y="733" type="curve" smooth="yes"/>
      <point x="248" y="733"/>
      <point x="43" y="547"/>
      <point x="43" y="301" type="curve" smooth="yes"/>
      <point x="43" y="65"/>
      <point x="225" y="-65"/>
      <point x="454" y="-65" type="curve" smooth="yes"/>
      <point x="547" y="-65"/>
      <point x="631" y="-45"/>
      <point x="685" y="-19" type="curve"/>
      <point x="676" y="45" type="line"/>
      <point x="619" y="19"/>
      <point x="542" y="1"/>
      <point x="454" y="1" type="curve" smooth="yes"/>
      <point x="267" y="1"/>
      <point x="118" y="110"/>
      <point x="118" y="301" type="curve" smooth="yes"/>
      <point x="118" y="509"/>
      <point x="283" y="667"/>
      <point x="519" y="667" type="curve" smooth="yes"/>
      <point x="702" y="667"/>
      <point x="806" y="575"/>
      <point x="806" y="430" type="curve" smooth="yes"/>
      <point x="806" y="286"/>
      <point x="733" y="182"/>
      <point x="664" y="182" type="curve" smooth="yes"/>
      <point x="637" y="182"/>
      <point x="622" y="192"/>
      <point x="622" y="214" type="curve" smooth="yes"/>
      <point x="622" y="228"/>
      <point x="625" y="240"/>
      <point x="631" y="262" type="curve" smooth="yes"/>
      <point x="705" y="541" type="line"/>
      <point x="621" y="541" type="line"/>
      <point x="589" y="481" type="line"/>
      <point x="566" y="529"/>
      <point x="529" y="547"/>
      <point x="472" y="547" type="curve" smooth="yes"/>
      <point x="329" y="547"/>
      <point x="243" y="406"/>
      <point x="243" y="284" type="curve" smooth="yes"/>
      <point x="243" y="174"/>
      <point x="312" y="120"/>
    </contour>
    <contour>
      <point x="360" y="264" type="curve" smooth="yes"/>
      <point x="360" y="369"/>
      <point x="416" y="486"/>
      <point x="488" y="486" type="curve" smooth="yes"/>
      <point x="519" y="486"/>
      <point x="544" y="471"/>
      <point x="559" y="433" type="curve"/>
      <point x="509" y="242" type="line"/>
      <point x="476" y="200"/>
      <point x="447" y="180"/>
      <point x="416" y="180" type="curve" smooth="yes"/>
      <point x="382" y="180"/>
      <point x="360" y="206"/>
    </contour>
  </outline>
</glyph>
<glyph name="baht.proportional" format="1">
  <advance width="677"/>
  <outline>
    <contour>
      <point x="389" y="790" type="line"/>
      <point x="374" y="703" type="line"/>
      <point x="94" y="703" type="line"/>
      <point x="84" y="645" type="line"/>
      <point x="95" y="645" type="line" smooth="yes"/>
      <point x="126" y="645"/>
      <point x="149" y="638"/>
      <point x="143" y="609" type="curve" smooth="yes"/>
      <point x="54" y="101" type="line" smooth="yes"/>
      <point x="49" y="72"/>
      <point x="24" y="65"/>
      <point x="-7" y="65" type="curve" smooth="yes"/>
      <point x="-18" y="65" type="line"/>
      <point x="-28" y="7" type="line"/>
      <point x="251" y="7" type="line"/>
      <point x="231" y="-110" type="line"/>
      <point x="307" y="-110" type="line"/>
      <point x="328" y="7" type="line"/>
      <point x="344" y="7" type="line" smooth="yes"/>
      <point x="537" y="7"/>
      <point x="630" y="90"/>
      <point x="630" y="215" type="curve" smooth="yes"/>
      <point x="630" y="291"/>
      <point x="581" y="347"/>
      <point x="476" y="371" type="curve"/>
      <point x="587" y="385"/>
      <point x="656" y="448"/>
      <point x="656" y="544" type="curve" smooth="yes"/>
      <point x="656" y="627"/>
      <point x="588" y="693"/>
      <point x="449" y="702" type="curve"/>
      <point x="464" y="790" type="line"/>
    </contour>
    <contour>
      <point x="230" y="402" type="line"/>
      <point x="272" y="638" type="line"/>
      <point x="370" y="638" type="line"/>
      <point x="329" y="402" type="line"/>
    </contour>
    <contour>
      <point x="391" y="402" type="curve"/>
      <point x="388" y="402" type="line"/>
      <point x="430" y="637" type="line"/>
      <point x="501" y="632"/>
      <point x="532" y="597"/>
      <point x="532" y="539" type="curve" smooth="yes"/>
      <point x="532" y="455"/>
      <point x="485" y="402"/>
    </contour>
    <contour>
      <point x="172" y="71" type="line"/>
      <point x="219" y="340" type="line"/>
      <point x="318" y="340" type="line"/>
      <point x="270" y="71" type="line"/>
    </contour>
    <contour>
      <point x="503" y="224" type="curve" smooth="yes"/>
      <point x="503" y="130"/>
      <point x="455" y="71"/>
      <point x="338" y="71" type="curve" smooth="yes"/>
      <point x="330" y="71" type="line"/>
      <point x="377" y="340" type="line"/>
      <point x="470" y="335"/>
      <point x="503" y="285"/>
    </contour>
  </outline>
</glyph>
<glyph name="brevebelow" format="1">
  <advance width="500"/>
  <outline>
    <contour>
      <point x="274" y="-248" type="curve" smooth="yes"/>
      <point x="359" y="-248"/>
      <point x="425" y="-204"/>
      <point x="438" y="-79" type="curve"/>
      <point x="367" y="-79" type="line"/>
      <point x="355" y="-135"/>
      <point x="333" y="-158"/>
      <point x="281" y="-158" type="curve" smooth="yes"/>
      <point x="225" y="-158"/>
      <point x="209" y="-129"/>
      <point x="212" y="-79" type="curve"/>
      <point x="137" y="-79" type="line"/>
      <point x="135" y="-88"/>
      <point x="134" y="-100"/>
      <point x="134" y="-111" type="curve" smooth="yes"/>
      <point x="133" y="-198"/>
      <point x="185" y="-248"/>
    </contour>
    <contour>
      <point x="250" y="-46" type="move" name="_bottom"/>
    </contour>
  </outline>
</glyph>
<glyph name="cedi.proportional" format="1">
  <advance width="710"/>
  <outline>
    <contour>
      <point x="364" y="4" type="line" smooth="yes"/>
      <point x="501" y="4"/>
      <point x="603" y="89"/>
      <point x="650" y="220" type="curve"/>
      <point x="587" y="257" type="line"/>
      <point x="548" y="146"/>
      <point x="474" y="76"/>
      <point x="378" y="76" type="curve" smooth="yes"/>
      <point x="376" y="76"/>
      <point x="374" y="76"/>
      <point x="373" y="76" type="curve"/>
      <point x="471" y="635" type="line"/>
      <point x="515" y="629"/>
      <point x="549" y="615"/>
      <point x="573" y="596" type="curve"/>
      <point x="555" y="492" type="line"/>
      <point x="672" y="492" type="line"/>
      <point x="691" y="612" type="line"/>
      <point x="673" y="634"/>
      <point x="605" y="689"/>
      <point x="487" y="703" type="curve"/>
      <point x="502" y="790" type="line"/>
      <point x="429" y="790" type="line"/>
      <point x="414" y="706" type="line"/>
      <point x="193" y="698"/>
      <point x="50" y="538"/>
      <point x="50" y="324" type="curve" smooth="yes"/>
      <point x="50" y="158"/>
      <point x="154" y="41"/>
      <point x="292" y="12" type="curve"/>
      <point x="269" y="-120" type="line"/>
      <point x="342" y="-120" type="line"/>
      <point x="363" y="4" type="line"/>
    </contour>
    <contour>
      <point x="192" y="298" type="curve" smooth="yes"/>
      <point x="192" y="467"/>
      <point x="268" y="617"/>
      <point x="406" y="635" type="curve"/>
      <point x="310" y="88" type="line"/>
      <point x="239" y="114"/>
      <point x="192" y="185"/>
    </contour>
  </outline>
</glyph>
<glyph name="cedillacomb" format="1">
  <advance width="0"/>
  <outline>
    <component base="cedilla" xOffset="-548"/>
    <contour>
      <point x="0" y="34" type="move" name="_bottom"/>
    </contour>
  </outline>
</glyph>
<glyph name="dblgrave" format="1">
  <advance width="500"/>
  <outline>
    <contour>
      <point x="319" y="691" type="line" smooth="yes"/>
      <point x="301" y="747"/>
      <point x="280" y="773"/>
      <point x="241" y="773" type="curve" smooth="yes"/>
      <point x="209" y="773"/>
      <point x="191" y="753"/>
      <point x="191" y="728" type="curve" smooth="yes"/>
      <point x="191" y="700"/>
      <point x="202" y="680"/>
      <point x="243" y="640" type="curve" smooth="yes"/>
      <point x="313" y="563" type="line"/>
      <point x="358" y="563" type="line"/>
      <point x="355" y="586" type="line"/>
    </contour>
    <contour>
      <point x="150" y="691" type="line" smooth="yes"/>
      <point x="132" y="747"/>
      <point x="111" y="773"/>
      <point x="72" y="773" type="curve" smooth="yes"/>
      <point x="40" y="773"/>
      <point x="22" y="753"/>
      <point x="22" y="728" type="curve" smooth="yes"/>
      <point x="22" y="700"/>
      <point x="33" y="680"/>
      <point x="74" y="640" type="curve" smooth="yes"/>
      <point x="144" y="563" type="line"/>
      <point x="189" y="563" type="line"/>
      <point x="186" y="586" type="line"/>
    </contour>
    <contour>
      <point x="238" y="539" type="move" name="_top"/>
    </contour>
  </outline>
</glyph>
<glyph name="dblgrave.uc" format="1">
  <advance width="500"/>
  <outline>
    <contour>
      <point x="366" y="854" type="line" smooth="yes"/>
      <point x="353" y="906"/>
      <point x="332" y="928"/>
      <point x="296" y="928" type="curve" smooth="yes"/>
      <point x="264" y="928"/>
      <point x="241" y="909"/>
      <point x="241" y="880" type="curve" smooth="yes"/>
      <point x="241" y="850"/>
      <point x="258" y="831"/>
      <point x="295" y="795" type="curve" smooth="yes"/>
      <point x="340" y="752" type="line"/>
      <point x="386" y="752" type="line"/>
      <point x="385" y="777" type="line"/>
    </contour>
    <contour>
      <point x="188" y="854" type="line" smooth="yes"/>
      <point x="176" y="906"/>
      <point x="154" y="928"/>
      <point x="118" y="928" type="curve" smooth="yes"/>
      <point x="87" y="928"/>
      <point x="64" y="909"/>
      <point x="64" y="880" type="curve" smooth="yes"/>
      <point x="64" y="850"/>
      <point x="81" y="831"/>
      <point x="118" y="795" type="curve" smooth="yes"/>
      <point x="163" y="752" type="line"/>
      <point x="209" y="752" type="line"/>
      <point x="208" y="777" type="line"/>
    </contour>
    <contour>
      <point x="290" y="734" type="move" name="_top"/>
    </contour>
  </outline>
</glyph>
<glyph name="dieresis_macron.uc" format="1">
  <advance width="537"/>
  <outline>
    <contour>
      <point x="171" y="782" type="curve" smooth="yes"/>
      <point x="219" y="782"/>
      <point x="251" y="811"/>
      <point x="251" y="857" type="curve" smooth="yes"/>
      <point x="251" y="900"/>
      <point x="220" y="926"/>
      <point x="174" y="926" type="curve" smooth="yes"/>
      <point x="126" y="926"/>
      <point x="95" y="898"/>
      <point x="95" y="853" type="curve" smooth="yes"/>
      <point x="95" y="809"/>
      <point x="125" y="782"/>
    </contour>
    <contour>
      <point x="401" y="782" type="curve" smooth="yes"/>
      <point x="449" y="782"/>
      <point x="480" y="811"/>
      <point x="480" y="857" type="curve" smooth="yes"/>
      <point x="480" y="900"/>
      <point x="450" y="926"/>
      <point x="404" y="926" type="curve" smooth="yes"/>
      <point x="356" y="926"/>
      <point x="325" y="898"/>
      <point x="325" y="853" type="curve" smooth="yes"/>
      <point x="325" y="809"/>
      <point x="355" y="782"/>
    </contour>
    <contour>
      <point x="156" y="1048" type="line"/>
      <point x="141" y="964" type="line"/>
      <point x="456" y="964" type="line"/>
      <point x="471" y="1048" type="line"/>
    </contour>
    <contour>
      <point x="263" y="694" type="move" name="_top"/>
    </contour>
  </outline>
</glyph>
<glyph name="dieresisacute.uc" format="1">
  <advance width="574"/>
  <outline>
    <component base="dieresis_acute.uc" xOffset="-10"/>
    <contour>
      <point x="281" y="694" type="move" name="_top"/>
    </contour>
  </outline>
</glyph>
<glyph name="dollar.altprop" format="1">
  <advance width="584"/>
  <outline>
    <contour>
      <point x="287" y="357" type="curve" smooth="yes"/>
      <point x="376" y="317"/>
      <point x="474" y="289"/>
      <point x="474" y="199" type="curve" smooth="yes"/>
      <point x="474" y="94"/>
      <point x="396" y="38"/>
      <point x="283" y="38" type="curve" smooth="yes"/>
      <point x="196" y="38"/>
      <point x="123" y="58"/>
      <point x="73" y="101" type="curve"/>
      <point x="87" y="181" type="line"/>
      <point x="39" y="181" type="line"/>
      <point x="24" y="96" type="line"/>
      <point x="58" y="60"/>
      <point x="129" y="21"/>
      <point x="229" y="11" type="curve"/>
      <point x="206" y="-120" type="line"/>
      <point x="242" y="-120" type="line"/>
      <point x="264" y="8" type="line"/>
      <point x="269" y="8"/>
      <point x="275" y="8"/>
      <point x="280" y="8" type="curve" smooth="yes"/>
      <point x="425" y="8"/>
      <point x="517" y="85"/>
      <point x="517" y="199" type="curve" smooth="yes"/>
      <point x="517" y="305"/>
      <point x="420" y="342"/>
      <point x="340" y="377" type="curve" smooth="yes"/>
      <point x="252" y="416"/>
      <point x="167" y="443"/>
      <point x="167" y="532" type="curve" smooth="yes"/>
      <point x="167" y="619"/>
      <point x="234" y="668"/>
      <point x="352" y="668" type="curve" smooth="yes"/>
      <point x="424" y="668"/>
      <point x="478" y="650"/>
      <point x="511" y="625" type="curve"/>
      <point x="498" y="551" type="line"/>
      <point x="546" y="551" type="line"/>
      <point x="560" y="634" type="line"/>
      <point x="537" y="656"/>
      <point x="481" y="690"/>
      <point x="386" y="697" type="curve"/>
      <point x="402" y="787" type="line"/>
      <point x="366" y="787" type="line"/>
      <point x="350" y="698" type="line"/>
      <point x="216" y="698"/>
      <point x="124" y="635"/>
      <point x="124" y="532" type="curve" smooth="yes"/>
      <point x="124" y="430"/>
      <point x="210" y="392"/>
    </contour>
  </outline>
</glyph>
<glyph name="dotaccent.uc" format="1">
  <advance width="500"/>
  <outline>
    <contour>
      <point x="290" y="771" type="curve" smooth="yes"/>
      <point x="341" y="771"/>
      <point x="375" y="800"/>
      <point x="375" y="845" type="curve" smooth="yes"/>
      <point x="375" y="888"/>
      <point x="343" y="915"/>
      <point x="294" y="915" type="curve" smooth="yes"/>
      <point x="243" y="915"/>
      <point x="210" y="887"/>
      <point x="210" y="842" type="curve" smooth="yes"/>
      <point x="210" y="798"/>
      <point x="241" y="771"/>
    </contour>
    <contour>
      <point x="241" y="720" type="move" name="_top"/>
    </contour>
  </outline>
</glyph>
<glyph name="dotbelowcomb" format="1">
  <advance width="0"/>
  <outline>
    <component base="dotbelow" xOffset="-580"/>
    <contour>
      <point x="0" y="-35" type="move" name="_bottom"/>
    </contour>
  </outline>
</glyph>
<glyph name="eight.lin" format="1">
  <advance width="560"/>
  <outline>
    <contour>
      <point x="12" y="197" type="curve" smooth="yes"/>
      <point x="12" y="72"/>
      <point x="120" y="-10"/>
      <point x="262" y="-10" type="curve" smooth="yes"/>
      <point x="423" y="-10"/>
      <point x="523" y="86"/>
      <point x="523" y="202" type="curve" smooth="yes"/>
      <point x="523" y="283"/>
      <point x="472" y="343"/>
      <point x="390" y="372" type="curve"/>
      <point x="485" y="393"/>
      <point x="541" y="457"/>
      <point x="541" y="545" type="curve" smooth="yes"/>
      <point x="541" y="648"/>
      <point x="454" y="720"/>
      <point x="329" y="720" type="curve" smooth="yes"/>
      <point x="193" y="720"/>
      <point x="101" y="644"/>
      <point x="101" y="540" type="curve" smooth="yes"/>
      <point x="101" y="471"/>
      <point x="140" y="416"/>
      <point x="204" y="387" type="curve"/>
      <point x="86" y="369"/>
      <point x="12" y="298"/>
    </contour>
    <contour>
      <point x="315" y="411" type="curve" smooth="yes"/>
      <point x="260" y="411"/>
      <point x="229" y="449"/>
      <point x="229" y="509" type="curve" smooth="yes"/>
      <point x="229" y="524"/>
      <point x="230" y="538"/>
      <point x="233" y="554" type="curve" smooth="yes"/>
      <point x="245" y="616"/>
      <point x="279" y="647"/>
      <point x="329" y="647" type="curve" smooth="yes"/>
      <point x="383" y="647"/>
      <point x="414" y="612"/>
      <point x="414" y="554" type="curve" smooth="yes"/>
      <point x="414" y="540"/>
      <point x="413" y="527"/>
      <point x="410" y="511" type="curve" smooth="yes"/>
      <point x="398" y="447"/>
      <point x="364" y="411"/>
    </contour>
    <contour>
      <point x="261" y="63" type="curve" smooth="yes"/>
      <point x="192" y="63"/>
      <point x="151" y="106"/>
      <point x="151" y="177" type="curve" smooth="yes"/>
      <point x="151" y="193"/>
      <point x="152" y="207"/>
      <point x="155" y="224" type="curve" smooth="yes"/>
      <point x="169" y="300"/>
      <point x="213" y="341"/>
      <point x="277" y="341" type="curve"/>
      <point x="348" y="341"/>
      <point x="384" y="297"/>
      <point x="384" y="234" type="curve" smooth="yes"/>
      <point x="384" y="215"/>
      <point x="382" y="194"/>
      <point x="377" y="173" type="curve" smooth="yes"/>
      <point x="360" y="105"/>
      <point x="321" y="63"/>
    </contour>
  </outline>
</glyph>
<glyph name="eight.sup" format="1">
  <advance width="349"/>
  <outline>
    <contour>
      <point x="47" y="470" type="curve" smooth="yes"/>
      <point x="47" y="409"/>
      <point x="106" y="363"/>
      <point x="201" y="363" type="curve"/>
      <point x="299" y="363"/>
      <point x="357" y="411"/>
      <point x="357" y="469" type="curve" smooth="yes"/>
      <point x="357" y="508"/>
      <point x="333" y="538"/>
      <point x="284" y="554" type="curve"/>
      <point x="339" y="565"/>
      <point x="368" y="596"/>
      <point x="368" y="638" type="curve" smooth="yes"/>
      <point x="368" y="690"/>
      <point x="317" y="727"/>
      <point x="233" y="727" type="curve" smooth="yes"/>
      <point x="145" y="727"/>
      <point x="92" y="688"/>
      <point x="92" y="637" type="curve" smooth="yes"/>
      <point x="92" y="602"/>
      <point x="111" y="577"/>
      <point x="147" y="562" type="curve"/>
      <point x="84" y="552"/>
      <point x="47" y="520"/>
    </contour>
    <contour>
      <point x="226" y="579" type="curve"/>
      <point x="200" y="579"/>
      <point x="187" y="596"/>
      <point x="187" y="617" type="curve" smooth="yes"/>
      <point x="187" y="627"/>
      <point x="189" y="638"/>
      <point x="192" y="649" type="curve" smooth="yes"/>
      <point x="200" y="668"/>
      <point x="213" y="679"/>
      <point x="233" y="679" type="curve"/>
      <point x="260" y="679"/>
      <point x="273" y="662"/>
      <point x="273" y="641" type="curve" smooth="yes"/>
      <point x="273" y="631"/>
      <point x="271" y="620"/>
      <point x="268" y="609" type="curve" smooth="yes"/>
      <point x="260" y="590"/>
      <point x="247" y="579"/>
    </contour>
    <contour>
      <point x="200" y="412" type="curve"/>
      <point x="169" y="412"/>
      <point x="149" y="430"/>
      <point x="149" y="458" type="curve" smooth="yes"/>
      <point x="149" y="470"/>
      <point x="151" y="486"/>
      <point x="156" y="498" type="curve" smooth="yes"/>
      <point x="166" y="522"/>
      <point x="183" y="533"/>
      <point x="206" y="533" type="curve"/>
      <point x="239" y="533"/>
      <point x="257" y="514"/>
      <point x="257" y="487" type="curve" smooth="yes"/>
      <point x="257" y="475"/>
      <point x="254" y="459"/>
      <point x="250" y="447" type="curve" smooth="yes"/>
      <point x="240" y="423"/>
      <point x="224" y="412"/>
    </contour>
  </outline>
</glyph>
<glyph name="f.short" format="1">
  <advance width="391"/>
  <outline>
    <contour>
      <point x="154" y="-223" type="line"/>
      <point x="272" y="446" type="line"/>
      <point x="401" y="446" type="line"/>
      <point x="412" y="510" type="line"/>
      <point x="283" y="510" type="line"/>
      <point x="293" y="566" type="line" smooth="yes"/>
      <point x="305" y="649"/>
      <point x="333" y="678"/>
      <point x="387" y="678" type="curve" smooth="yes"/>
      <point x="410" y="678"/>
      <point x="432" y="672"/>
      <point x="440" y="670" type="curve"/>
      <point x="452" y="734" type="line"/>
      <point x="442" y="737"/>
      <point x="413" y="746"/>
      <point x="366" y="746" type="curve" smooth="yes"/>
      <point x="248" y="746"/>
      <point x="166" y="689"/>
      <point x="149" y="548" type="curve" smooth="yes"/>
      <point x="144" y="510" type="line"/>
      <point x="49" y="510" type="line"/>
      <point x="39" y="446" type="line"/>
      <point x="136" y="446" type="line"/>
      <point x="50" y="-223" type="line"/>
    </contour>
  </outline>
</glyph>
<glyph name="f_h" format="1">
  <advance width="975"/>
  <outline>
    <contour>
      <point x="154" y="-223" type="line"/>
      <point x="271" y="446" type="line"/>
      <point x="398" y="446" type="line"/>
      <point x="409" y="510" type="line"/>
      <point x="283" y="510" type="line"/>
      <point x="292" y="563" type="line" smooth="yes"/>
      <point x="308" y="653"/>
      <point x="341" y="683"/>
      <point x="398" y="683" type="curve" smooth="yes"/>
      <point x="441" y="683"/>
      <point x="474" y="669"/>
      <point x="497" y="646" type="curve"/>
      <point x="383" y="0" type="line"/>
      <point x="521" y="0" type="line"/>
      <point x="580" y="334" type="line"/>
      <point x="628" y="402"/>
      <point x="674" y="437"/>
      <point x="719" y="437" type="curve" smooth="yes"/>
      <point x="754" y="437"/>
      <point x="767" y="417"/>
      <point x="767" y="386" type="curve" smooth="yes"/>
      <point x="767" y="369"/>
      <point x="764" y="349"/>
      <point x="757" y="317" type="curve" smooth="yes"/>
      <point x="734" y="199" type="line" smooth="yes"/>
      <point x="722" y="140"/>
      <point x="718" y="114"/>
      <point x="718" y="87" type="curve" smooth="yes"/>
      <point x="718" y="23"/>
      <point x="763" y="-9"/>
      <point x="829" y="-9" type="curve" smooth="yes"/>
      <point x="874" y="-9"/>
      <point x="913" y="6"/>
      <point x="934" y="21" type="curve"/>
      <point x="946" y="82" type="line"/>
      <point x="937" y="79"/>
      <point x="910" y="66"/>
      <point x="885" y="66" type="curve" smooth="yes"/>
      <point x="864" y="66"/>
      <point x="855" y="74"/>
      <point x="855" y="92" type="curve" smooth="yes"/>
      <point x="855" y="107"/>
      <point x="861" y="135"/>
      <point x="869" y="178" type="curve" smooth="yes"/>
      <point x="895" y="311" type="line" smooth="yes"/>
      <point x="903" y="352"/>
      <point x="906" y="380"/>
      <point x="906" y="402" type="curve" smooth="yes"/>
      <point x="906" y="475"/>
      <point x="858" y="520"/>
      <point x="779" y="520" type="curve" smooth="yes"/>
      <point x="704" y="520"/>
      <point x="647" y="480"/>
      <point x="594" y="416" type="curve"/>
      <point x="651" y="735" type="line"/>
      <point x="496" y="735" type="line"/>
      <point x="467" y="744"/>
      <point x="433" y="750"/>
      <point x="395" y="750" type="curve" smooth="yes"/>
      <point x="269" y="750"/>
      <point x="168" y="697"/>
      <point x="148" y="540" type="curve" smooth="yes"/>
      <point x="144" y="510" type="line"/>
      <point x="49" y="510" type="line"/>
      <point x="39" y="446" type="line"/>
      <point x="136" y="446" type="line"/>
      <point x="50" y="-223" type="line"/>
    </contour>
  </outline>
</glyph>
<glyph name="f_i" format="1">
  <advance width="661"/>
  <outline>
    <contour>
      <point x="550" y="603" type="curve" smooth="yes"/>
      <point x="600" y="603"/>
      <point x="634" y="632"/>
      <point x="634" y="678" type="curve" smooth="yes"/>
      <point x="634" y="720"/>
      <point x="602" y="747"/>
      <point x="553" y="747" type="curve" smooth="yes"/>
      <point x="503" y="747"/>
      <point x="469" y="719"/>
      <point x="469" y="674" type="curve" smooth="yes"/>
      <point x="469" y="630"/>
      <point x="500" y="603"/>
    </contour>
    <contour>
      <point x="154" y="-223" type="line"/>
      <point x="272" y="446" type="line"/>
      <point x="396" y="446" type="line" smooth="yes"/>
      <point x="442" y="446"/>
      <point x="460" y="432"/>
      <point x="455" y="407" type="curve" smooth="yes"/>
      <point x="418" y="199" type="line" smooth="yes"/>
      <point x="407" y="140"/>
      <point x="402" y="115"/>
      <point x="402" y="88" type="curve" smooth="yes"/>
      <point x="402" y="24"/>
      <point x="449" y="-9"/>
      <point x="515" y="-9" type="curve" smooth="yes"/>
      <point x="561" y="-9"/>
      <point x="599" y="6"/>
      <point x="620" y="20" type="curve"/>
      <point x="631" y="82" type="line"/>
      <point x="622" y="79"/>
      <point x="595" y="66"/>
      <point x="570" y="66" type="curve" smooth="yes"/>
      <point x="549" y="66"/>
      <point x="540" y="74"/>
      <point x="540" y="92" type="curve" smooth="yes"/>
      <point x="540" y="108"/>
      <point x="544" y="135"/>
      <point x="551" y="178" type="curve" smooth="yes"/>
      <point x="610" y="510" type="line"/>
      <point x="283" y="510" type="line"/>
      <point x="296" y="583" type="line" smooth="yes"/>
      <point x="309" y="656"/>
      <point x="331" y="678"/>
      <point x="372" y="678" type="curve" smooth="yes"/>
      <point x="388" y="678"/>
      <point x="403" y="675"/>
      <point x="410" y="673" type="curve"/>
      <point x="422" y="737" type="line"/>
      <point x="411" y="741"/>
      <point x="386" y="746"/>
      <point x="350" y="746" type="curve" smooth="yes"/>
      <point x="246" y="746"/>
      <point x="168" y="693"/>
      <point x="151" y="562" type="curve" smooth="yes"/>
      <point x="144" y="510" type="line"/>
      <point x="49" y="510" type="line"/>
      <point x="39" y="446" type="line"/>
      <point x="136" y="446" type="line"/>
      <point x="50" y="-223" type="line"/>
    </contour>
  </outline>
</glyph>
<glyph name="f_k" format="1">
  <advance width="932"/>
  <outline>
    <contour>
      <point x="154" y="-223" type="line"/>
      <point x="271" y="446" type="line"/>
      <point x="398" y="446" type="line"/>
      <point x="409" y="510" type="line"/>
      <point x="283" y="510" type="line"/>
      <point x="292" y="563" type="line" smooth="yes"/>
      <point x="308" y="653"/>
      <point x="341" y="683"/>
      <point x="398" y="683" type="curve" smooth="yes"/>
      <point x="441" y="683"/>
      <point x="473" y="669"/>
      <point x="497" y="647" type="curve"/>
      <point x="384" y="0" type="line"/>
      <point x="522" y="0" type="line"/>
      <point x="650" y="735" type="line"/>
      <point x="496" y="735" type="line"/>
      <point x="467" y="744"/>
      <point x="433" y="750"/>
      <point x="395" y="750" type="curve" smooth="yes"/>
      <point x="269" y="750"/>
      <point x="168" y="697"/>
      <point x="148" y="540" type="curve" smooth="yes"/>
      <point x="144" y="510" type="line"/>
      <point x="49" y="510" type="line"/>
      <point x="39" y="446" type="line"/>
      <point x="136" y="446" type="line"/>
      <point x="50" y="-223" type="line"/>
    </contour>
    <contour>
      <point x="894" y="23" type="curve"/>
      <point x="904" y="86" type="line"/>
      <point x="895" y="83"/>
      <point x="870" y="73"/>
      <point x="847" y="73" type="curve" smooth="yes"/>
      <point x="820" y="73"/>
      <point x="796" y="104"/>
      <point x="773" y="169" type="curve" smooth="yes"/>
      <point x="719" y="318" type="line"/>
      <point x="941" y="499" type="line"/>
      <point x="941" y="510" type="line"/>
      <point x="827" y="510" type="line"/>
      <point x="600" y="285" type="line"/>
      <point x="599" y="277" type="line"/>
      <point x="648" y="132" type="line" smooth="yes"/>
      <point x="678" y="40"/>
      <point x="720" y="-9"/>
      <point x="793" y="-9" type="curve" smooth="yes"/>
      <point x="835" y="-9"/>
      <point x="875" y="9"/>
    </contour>
  </outline>
</glyph>
<glyph name="f_l" format="1">
  <advance width="662"/>
  <outline>
    <contour>
      <point x="154" y="-223" type="line"/>
      <point x="271" y="446" type="line"/>
      <point x="398" y="446" type="line"/>
      <point x="409" y="510" type="line"/>
      <point x="283" y="510" type="line"/>
      <point x="292" y="563" type="line" smooth="yes"/>
      <point x="308" y="653"/>
      <point x="341" y="683"/>
      <point x="398" y="683" type="curve" smooth="yes"/>
      <point x="441" y="683"/>
      <point x="474" y="669"/>
      <point x="498" y="646" type="curve"/>
      <point x="412" y="160" type="line" smooth="yes"/>
      <point x="406" y="132"/>
      <point x="402" y="108"/>
      <point x="402" y="88" type="curve" smooth="yes"/>
      <point x="402" y="25"/>
      <point x="448" y="-10"/>
      <point x="513" y="-10" type="curve" smooth="yes"/>
      <point x="560" y="-10"/>
      <point x="598" y="6"/>
      <point x="618" y="19" type="curve"/>
      <point x="630" y="81" type="line"/>
      <point x="616" y="75"/>
      <point x="592" y="65"/>
      <point x="568" y="65" type="curve" smooth="yes"/>
      <point x="548" y="65"/>
      <point x="538" y="71"/>
      <point x="538" y="89" type="curve" smooth="yes"/>
      <point x="538" y="100"/>
      <point x="541" y="116"/>
      <point x="545" y="137" type="curve"/>
      <point x="650" y="734" type="line"/>
      <point x="499" y="734" type="line"/>
      <point x="469" y="744"/>
      <point x="434" y="750"/>
      <point x="395" y="750" type="curve" smooth="yes"/>
      <point x="269" y="750"/>
      <point x="168" y="697"/>
      <point x="148" y="540" type="curve" smooth="yes"/>
      <point x="144" y="510" type="line"/>
      <point x="49" y="510" type="line"/>
      <point x="39" y="446" type="line"/>
      <point x="136" y="446" type="line"/>
      <point x="50" y="-223" type="line"/>
    </contour>
  </outline>
</glyph>
<glyph name="five.old" format="1">
  <advance width="560"/>
  <outline>
    <contour>
      <point x="245" y="-150" type="curve" smooth="yes"/>
      <point x="414" y="-150"/>
      <point x="518" y="-41"/>
      <point x="518" y="102" type="curve" smooth="yes"/>
      <point x="518" y="218"/>
      <point x="439" y="303"/>
      <point x="310" y="303" type="curve" smooth="yes"/>
      <point x="253" y="303"/>
      <point x="208" y="286"/>
      <point x="173" y="255" type="curve"/>
      <point x="207" y="445" type="line"/>
      <point x="499" y="445" type="line"/>
      <point x="532" y="548" type="line"/>
      <point x="148" y="548" type="line"/>
      <point x="80" y="165" type="line"/>
      <point x="147" y="165" type="line"/>
      <point x="174" y="206"/>
      <point x="213" y="233"/>
      <point x="269" y="233" type="curve" smooth="yes"/>
      <point x="346" y="233"/>
      <point x="384" y="182"/>
      <point x="384" y="107" type="curve" smooth="yes"/>
      <point x="384" y="10"/>
      <point x="332" y="-77"/>
      <point x="235" y="-77" type="curve" smooth="yes"/>
      <point x="134" y="-77"/>
      <point x="91" y="-1"/>
      <point x="71" y="61" type="curve"/>
      <point x="0" y="22" type="line"/>
      <point x="26" y="-75"/>
      <point x="100" y="-150"/>
    </contour>
  </outline>
</glyph>
<glyph name="grave.uc" format="1">
  <advance width="500"/>
  <outline>
    <contour>
      <point x="335" y="763" type="line"/>
      <point x="376" y="763" type="line"/>
      <point x="376" y="788" type="line"/>
      <point x="328" y="865" type="line" smooth="yes"/>
      <point x="301" y="906"/>
      <point x="281" y="927"/>
      <point x="243" y="927" type="curve" smooth="yes"/>
      <point x="203" y="927"/>
      <point x="182" y="901"/>
      <point x="182" y="872" type="curve" smooth="yes"/>
      <point x="182" y="837"/>
      <point x="207" y="816"/>
      <point x="259" y="797" type="curve" smooth="yes"/>
    </contour>
    <contour>
      <point x="253" y="694" type="move" name="_top"/>
    </contour>
  </outline>
</glyph>
<glyph name="kip.proportional" format="1">
  <advance width="728"/>
  <outline>
    <contour>
      <point x="-8" y="0" type="line"/>
      <point x="291" y="0" type="line"/>
      <point x="302" y="58" type="line"/>
      <point x="294" y="58" type="line" smooth="yes"/>
      <point x="263" y="58"/>
      <point x="224" y="61"/>
      <point x="225" y="68" type="curve" smooth="yes"/>
      <point x="273" y="337" type="line"/>
      <point x="326" y="337" type="line"/>
      <point x="461" y="68" type="line"/>
      <point x="459" y="61"/>
      <point x="426" y="58"/>
      <point x="398" y="58" type="curve" smooth="yes"/>
      <point x="388" y="58" type="line"/>
      <point x="377" y="0" type="line"/>
      <point x="677" y="0" type="line"/>
      <point x="688" y="58" type="line"/>
      <point x="674" y="58" type="line" smooth="yes"/>
      <point x="638" y="58"/>
      <point x="623" y="64"/>
      <point x="608" y="91" type="curve" smooth="yes"/>
      <point x="482" y="337" type="line"/>
      <point x="641" y="337" type="line"/>
      <point x="653" y="403" type="line"/>
      <point x="448" y="403" type="line"/>
      <point x="443" y="412" type="line"/>
      <point x="650" y="620" type="line" smooth="yes"/>
      <point x="676" y="646"/>
      <point x="696" y="652"/>
      <point x="729" y="652" type="curve" smooth="yes"/>
      <point x="745" y="652" type="line"/>
      <point x="756" y="710" type="line"/>
      <point x="516" y="710" type="line"/>
      <point x="505" y="652" type="line"/>
      <point x="515" y="652" type="line" smooth="yes"/>
      <point x="545" y="652"/>
      <point x="583" y="650"/>
      <point x="583" y="643" type="curve"/>
      <point x="345" y="403" type="line"/>
      <point x="285" y="403" type="line"/>
      <point x="327" y="642" type="line" smooth="yes"/>
      <point x="328" y="649"/>
      <point x="371" y="652"/>
      <point x="406" y="652" type="curve" smooth="yes"/>
      <point x="416" y="652" type="line"/>
      <point x="427" y="710" type="line"/>
      <point x="118" y="710" type="line"/>
      <point x="107" y="652" type="line"/>
      <point x="117" y="652" type="line" smooth="yes"/>
      <point x="159" y="652"/>
      <point x="188" y="645"/>
      <point x="183" y="616" type="curve" smooth="yes"/>
      <point x="145" y="403" type="line"/>
      <point x="62" y="403" type="line"/>
      <point x="50" y="337" type="line"/>
      <point x="134" y="337" type="line"/>
      <point x="91" y="94" type="line" smooth="yes"/>
      <point x="86" y="65"/>
      <point x="55" y="58"/>
      <point x="13" y="58" type="curve" smooth="yes"/>
      <point x="2" y="58" type="line"/>
    </contour>
  </outline>
</glyph>
<glyph name="lira.altprop" format="1">
  <advance width="614"/>
  <outline>
    <contour>
      <point x="6" y="0" type="line"/>
      <point x="528" y="0" type="line"/>
      <point x="567" y="220" type="line"/>
      <point x="498" y="220" type="line"/>
      <point x="475" y="140" type="line" smooth="yes"/>
      <point x="464" y="103"/>
      <point x="430" y="97"/>
      <point x="347" y="97" type="curve" smooth="yes"/>
      <point x="168" y="97" type="line"/>
      <point x="232" y="128"/>
      <point x="275" y="182"/>
      <point x="293" y="248" type="curve"/>
      <point x="453" y="248" type="line"/>
      <point x="465" y="309" type="line"/>
      <point x="301" y="309" type="line"/>
      <point x="301" y="310"/>
      <point x="301" y="312"/>
      <point x="301" y="314" type="curve" smooth="yes"/>
      <point x="301" y="344"/>
      <point x="296" y="372"/>
      <point x="291" y="400" type="curve"/>
      <point x="480" y="400" type="line"/>
      <point x="491" y="462" type="line"/>
      <point x="281" y="462" type="line"/>
      <point x="281" y="472"/>
      <point x="280" y="482"/>
      <point x="280" y="492" type="curve" smooth="yes"/>
      <point x="280" y="575"/>
      <point x="310" y="647"/>
      <point x="406" y="647" type="curve" smooth="yes"/>
      <point x="444" y="647"/>
      <point x="474" y="637"/>
      <point x="496" y="621" type="curve"/>
      <point x="481" y="540" type="line"/>
      <point x="595" y="540" type="line"/>
      <point x="614" y="652" type="line"/>
      <point x="596" y="671"/>
      <point x="525" y="719"/>
      <point x="404" y="719" type="curve" smooth="yes"/>
      <point x="227" y="719"/>
      <point x="139" y="623"/>
      <point x="139" y="504" type="curve" smooth="yes"/>
      <point x="139" y="489"/>
      <point x="140" y="476"/>
      <point x="143" y="462" type="curve"/>
      <point x="85" y="462" type="line"/>
      <point x="74" y="400" type="line"/>
      <point x="159" y="400" type="line"/>
      <point x="168" y="370"/>
      <point x="179" y="340"/>
      <point x="183" y="309" type="curve"/>
      <point x="58" y="309" type="line"/>
      <point x="46" y="248" type="line"/>
      <point x="182" y="248" type="line"/>
      <point x="166" y="166"/>
      <point x="90" y="114"/>
      <point x="22" y="92" type="curve"/>
    </contour>
  </outline>
</glyph>
<glyph name="nine.den" format="1">
  <advance width="344"/>
  <outline>
    <contour>
      <point x="170" y="358" type="curve" smooth="yes"/>
      <point x="69" y="358"/>
      <point x="12" y="302"/>
      <point x="12" y="229" type="curve" smooth="yes"/>
      <point x="12" y="168"/>
      <point x="54" y="124"/>
      <point x="121" y="124" type="curve" smooth="yes"/>
      <point x="159" y="124"/>
      <point x="188" y="140"/>
      <point x="206" y="161" type="curve"/>
      <point x="184" y="87"/>
      <point x="126" y="30"/>
      <point x="18" y="25" type="curve"/>
      <point x="20" y="-19" type="line"/>
      <point x="197" y="-17"/>
      <point x="314" y="83"/>
      <point x="314" y="220" type="curve" smooth="yes"/>
      <point x="314" y="304"/>
      <point x="262" y="358"/>
    </contour>
    <contour>
      <point x="112" y="227" type="curve" smooth="yes"/>
      <point x="112" y="268"/>
      <point x="128" y="313"/>
      <point x="167" y="313" type="curve" smooth="yes"/>
      <point x="200" y="313"/>
      <point x="218" y="289"/>
      <point x="218" y="244" type="curve" smooth="yes"/>
      <point x="218" y="230"/>
      <point x="217" y="216"/>
      <point x="215" y="202" type="curve"/>
      <point x="201" y="181"/>
      <point x="183" y="169"/>
      <point x="159" y="169" type="curve" smooth="yes"/>
      <point x="128" y="169"/>
      <point x="112" y="191"/>
    </contour>
  </outline>
</glyph>
<glyph name="nine.sub" format="1">
  <advance width="344"/>
  <outline>
    <contour>
      <point x="159" y="258" type="curve" smooth="yes"/>
      <point x="58" y="258"/>
      <point x="1" y="202"/>
      <point x="1" y="129" type="curve" smooth="yes"/>
      <point x="1" y="68"/>
      <point x="43" y="24"/>
      <point x="110" y="24" type="curve" smooth="yes"/>
      <point x="148" y="24"/>
      <point x="177" y="40"/>
      <point x="195" y="61" type="curve"/>
      <point x="173" y="-13"/>
      <point x="115" y="-70"/>
      <point x="7" y="-75" type="curve"/>
      <point x="9" y="-119" type="line"/>
      <point x="186" y="-117"/>
      <point x="303" y="-17"/>
      <point x="303" y="120" type="curve" smooth="yes"/>
      <point x="303" y="204"/>
      <point x="251" y="258"/>
    </contour>
    <contour>
      <point x="101" y="127" type="curve" smooth="yes"/>
      <point x="101" y="168"/>
      <point x="117" y="213"/>
      <point x="156" y="213" type="curve" smooth="yes"/>
      <point x="189" y="213"/>
      <point x="207" y="189"/>
      <point x="207" y="144" type="curve" smooth="yes"/>
      <point x="207" y="130"/>
      <point x="206" y="116"/>
      <point x="204" y="102" type="curve"/>
      <point x="190" y="81"/>
      <point x="172" y="69"/>
      <point x="148" y="69" type="curve" smooth="yes"/>
      <point x="117" y="69"/>
      <point x="101" y="91"/>
    </contour>
  </outline>
</glyph>
<glyph name="one.den" format="1">
  <advance width="339"/>
  <outline>
    <contour>
      <point x="184" y="63" type="curve" smooth="yes"/>
      <point x="236" y="353" type="line"/>
      <point x="153" y="353" type="line"/>
      <point x="127" y="324"/>
      <point x="93" y="309"/>
      <point x="31" y="308" type="curve"/>
      <point x="21" y="250" type="line"/>
      <point x="64" y="249"/>
      <point x="99" y="259"/>
      <point x="122" y="285" type="curve"/>
      <point x="83" y="63" type="line" smooth="yes"/>
      <point x="80" y="43"/>
      <point x="51" y="39"/>
      <point x="17" y="39" type="curve" smooth="yes"/>
      <point x="-5" y="39" type="line"/>
      <point x="-11" y="0" type="line"/>
      <point x="251" y="0" type="line"/>
      <point x="258" y="39" type="line"/>
      <point x="243" y="39" type="line" smooth="yes"/>
      <point x="204" y="39"/>
      <point x="181" y="43"/>
    </contour>
  </outline>
</glyph>
<glyph name="one.num" format="1">
  <advance width="332"/>
  <outline>
    <contour>
      <point x="245" y="432" type="curve" smooth="yes"/>
      <point x="297" y="722" type="line"/>
      <point x="214" y="722" type="line"/>
      <point x="188" y="693"/>
      <point x="154" y="678"/>
      <point x="92" y="677" type="curve"/>
      <point x="82" y="619" type="line"/>
      <point x="125" y="618"/>
      <point x="160" y="628"/>
      <point x="183" y="654" type="curve"/>
      <point x="144" y="432" type="line" smooth="yes"/>
      <point x="141" y="412"/>
      <point x="112" y="408"/>
      <point x="78" y="408" type="curve" smooth="yes"/>
      <point x="56" y="408" type="line"/>
      <point x="50" y="369" type="line"/>
      <point x="312" y="369" type="line"/>
      <point x="319" y="408" type="line"/>
      <point x="304" y="408" type="line" smooth="yes"/>
      <point x="265" y="408"/>
      <point x="242" y="412"/>
    </contour>
  </outline>
</glyph>
<glyph name="otest" format="1">
  <advance width="616"/>
  <outline>
    <contour>
      <point x="308" y="-13" type="curve"/>
      <point x="475" y="-13"/>
      <point x="583" y="94"/>
      <point x="583" y="254" type="curve" smooth="yes"/>
      <point x="583" y="413"/>
      <point x="475" y="521"/>
      <point x="308" y="521" type="curve" smooth="yes"/>
      <point x="141" y="521"/>
      <point x="33" y="413"/>
      <point x="33" y="254" type="curve" smooth="yes"/>
      <point x="33" y="94"/>
      <point x="141" y="-13"/>
    </contour>
    <contour>
      <point x="308" y="51" type="curve"/>
      <point x="229" y="51"/>
      <point x="184" y="121"/>
      <point x="184" y="254" type="curve" smooth="yes"/>
      <point x="184" y="385"/>
      <point x="229" y="457"/>
      <point x="308" y="457" type="curve" smooth="yes"/>
      <point x="387" y="457"/>
      <point x="432" y="385"/>
      <point x="432" y="254" type="curve" smooth="yes"/>
      <point x="432" y="121"/>
      <point x="387" y="51"/>
    </contour>
    <contour>
      <point x="294" y="551" type="move" name="top"/>
    </contour>
    <contour>
      <point x="391" y="0" type="move" name="right"/>
    </contour>
    <contour>
      <point x="294" y="0" type="move" name="bottom"/>
    </contour>
  </outline>
</glyph>
<glyph name="parenleft.uc" format="1">
  <advance width="363"/>
  <outline>
    <contour>
      <point x="196" y="-38" type="curve"/>
      <point x="287" y="-38" type="line"/>
      <point x="287" y="-35" type="line"/>
      <point x="227" y="24"/>
      <point x="170" y="127"/>
      <point x="170" y="273" type="curve" smooth="yes"/>
      <point x="170" y="521"/>
      <point x="297" y="662"/>
      <point x="420" y="744" type="curve"/>
      <point x="420" y="747" type="line"/>
      <point x="329" y="747" type="line"/>
      <point x="188" y="691"/>
      <point x="45" y="536"/>
      <point x="45" y="290" type="curve" smooth="yes"/>
      <point x="45" y="138"/>
      <point x="113" y="25"/>
    </contour>
  </outline>
</glyph>
<glyph name="peso.proportional" format="1">
  <advance width="690"/>
  <outline>
    <contour>
      <point x="-9" y="0" type="line"/>
      <point x="302" y="0" type="line"/>
      <point x="313" y="58" type="line"/>
      <point x="287" y="58" type="line" smooth="yes"/>
      <point x="258" y="58"/>
      <point x="223" y="61"/>
      <point x="223" y="68" type="curve" smooth="yes"/>
      <point x="255" y="246" type="line"/>
      <point x="319" y="246" type="line" smooth="yes"/>
      <point x="495" y="246"/>
      <point x="599" y="324"/>
      <point x="622" y="447" type="curve"/>
      <point x="697" y="447" type="line"/>
      <point x="708" y="509" type="line"/>
      <point x="627" y="509" type="line"/>
      <point x="623" y="623"/>
      <point x="538" y="710"/>
      <point x="370" y="710" type="curve" smooth="yes"/>
      <point x="117" y="710" type="line"/>
      <point x="106" y="652" type="line"/>
      <point x="117" y="652" type="line" smooth="yes"/>
      <point x="158" y="652"/>
      <point x="187" y="645"/>
      <point x="182" y="616" type="curve" smooth="yes"/>
      <point x="163" y="509" type="line"/>
      <point x="80" y="509" type="line"/>
      <point x="69" y="447" type="line"/>
      <point x="152" y="447" type="line"/>
      <point x="90" y="94" type="line" smooth="yes"/>
      <point x="85" y="65"/>
      <point x="54" y="58"/>
      <point x="12" y="58" type="curve" smooth="yes"/>
      <point x="2" y="58" type="line"/>
    </contour>
    <contour>
      <point x="367" y="642" type="line" smooth="yes"/>
      <point x="453" y="642"/>
      <point x="494" y="591"/>
      <point x="494" y="514" type="curve" smooth="yes"/>
      <point x="494" y="507"/>
      <point x="494" y="506"/>
      <point x="494" y="506" type="curve"/>
      <point x="301" y="506" type="line"/>
      <point x="325" y="642" type="line"/>
    </contour>
    <contour>
      <point x="267" y="313" type="line"/>
      <point x="291" y="450" type="line"/>
      <point x="488" y="450" type="line"/>
      <point x="471" y="368"/>
      <point x="419" y="313"/>
      <point x="320" y="313" type="curve" smooth="yes"/>
    </contour>
  </outline>
</glyph>
<glyph name="ring.uc" format="1">
  <advance width="500"/>
  <outline>
    <contour>
      <point x="267" y="753" type="curve" smooth="yes"/>
      <point x="337" y="753"/>
      <point x="396" y="791"/>
      <point x="396" y="862" type="curve" smooth="yes"/>
      <point x="396" y="924"/>
      <point x="340" y="958"/>
      <point x="275" y="958" type="curve" smooth="yes"/>
      <point x="206" y="958"/>
      <point x="146" y="920"/>
      <point x="146" y="849" type="curve" smooth="yes"/>
      <point x="146" y="787"/>
      <point x="203" y="753"/>
    </contour>
    <contour>
      <point x="267" y="799" type="curve" smooth="yes"/>
      <point x="239" y="799"/>
      <point x="221" y="818"/>
      <point x="221" y="849" type="curve" smooth="yes"/>
      <point x="221" y="887"/>
      <point x="242" y="912"/>
      <point x="275" y="912" type="curve" smooth="yes"/>
      <point x="303" y="912"/>
      <point x="321" y="893"/>
      <point x="321" y="862" type="curve" smooth="yes"/>
      <point x="321" y="824"/>
      <point x="300" y="799"/>
    </contour>
    <contour>
      <point x="246" y="731" type="move" name="_top"/>
    </contour>
  </outline>
</glyph>
<glyph name="rupeeIndian.proportional" format="1">
  <advance width="595"/>
  <outline>
    <contour>
      <point x="99" y="520" type="line"/>
      <point x="87" y="454" type="line"/>
      <point x="337" y="454" type="line"/>
      <point x="320" y="374"/>
      <point x="261" y="333"/>
      <point x="139" y="333" type="curve" smooth="yes"/>
      <point x="66" y="333" type="line"/>
      <point x="56" y="278" type="line"/>
      <point x="289" y="0" type="line"/>
      <point x="457" y="0" type="line"/>
      <point x="468" y="57" type="line"/>
      <point x="456" y="57" type="line" smooth="yes"/>
      <point x="426" y="57"/>
      <point x="410" y="65"/>
      <point x="393" y="85" type="curve" smooth="yes"/>
      <point x="220" y="277" type="line"/>
      <point x="366" y="290"/>
      <point x="457" y="351"/>
      <point x="475" y="454" type="curve"/>
      <point x="571" y="454" type="line"/>
      <point x="583" y="520" type="line"/>
      <point x="476" y="520" type="line"/>
      <point x="467" y="579"/>
      <point x="430" y="622"/>
      <point x="357" y="644" type="curve"/>
      <point x="604" y="644" type="line"/>
      <point x="616" y="710" type="line"/>
      <point x="133" y="710" type="line"/>
      <point x="120" y="639" type="line"/>
      <point x="197" y="639" type="line" smooth="yes"/>
      <point x="295" y="639"/>
      <point x="337" y="592"/>
      <point x="342" y="520" type="curve"/>
    </contour>
  </outline>
</glyph>
<glyph name="three.sup" format="1">
  <advance width="339"/>
  <outline>
    <contour>
      <point x="215" y="679" type="curve" smooth="yes"/>
      <point x="247" y="679"/>
      <point x="260" y="661"/>
      <point x="260" y="636" type="curve" smooth="yes"/>
      <point x="260" y="600"/>
      <point x="240" y="574"/>
      <point x="181" y="574" type="curve" smooth="yes"/>
      <point x="153" y="574" type="line"/>
      <point x="146" y="530" type="line"/>
      <point x="169" y="530" type="line" smooth="yes"/>
      <point x="224" y="530"/>
      <point x="244" y="508"/>
      <point x="244" y="474" type="curve" smooth="yes"/>
      <point x="244" y="432"/>
      <point x="220" y="406"/>
      <point x="179" y="406" type="curve" smooth="yes"/>
      <point x="122" y="406"/>
      <point x="96" y="450"/>
      <point x="86" y="489" type="curve"/>
      <point x="38" y="465" type="line"/>
      <point x="51" y="402"/>
      <point x="100" y="357"/>
      <point x="192" y="357" type="curve" smooth="yes"/>
      <point x="280" y="357"/>
      <point x="343" y="394"/>
      <point x="343" y="464" type="curve" smooth="yes"/>
      <point x="343" y="504"/>
      <point x="314" y="538"/>
      <point x="253" y="552" type="curve"/>
      <point x="315" y="559"/>
      <point x="355" y="588"/>
      <point x="355" y="639" type="curve" smooth="yes"/>
      <point x="355" y="694"/>
      <point x="306" y="727"/>
      <point x="224" y="727" type="curve" smooth="yes"/>
      <point x="168" y="727"/>
      <point x="125" y="707"/>
      <point x="99" y="682" type="curve"/>
      <point x="90" y="622" type="line"/>
      <point x="167" y="622" type="line"/>
      <point x="173" y="667" type="line"/>
      <point x="185" y="675"/>
      <point x="199" y="679"/>
    </contour>
  </outline>
</glyph>
<glyph name="tilde_acute" format="1">
  <advance width="578"/>
  <outline>
    <contour>
      <point x="329" y="900" type="curve" smooth="yes"/>
      <point x="277" y="793" type="line"/>
      <point x="274" y="769" type="line"/>
      <point x="315" y="769" type="line"/>
      <point x="409" y="841" type="line" smooth="yes"/>
      <point x="448" y="867"/>
      <point x="470" y="888"/>
      <point x="470" y="921" type="curve" smooth="yes"/>
      <point x="470" y="950"/>
      <point x="447" y="973"/>
      <point x="412" y="973" type="curve" smooth="yes"/>
      <point x="374" y="973"/>
      <point x="354" y="950"/>
    </contour>
    <contour>
      <point x="189" y="577" type="line"/>
      <point x="201" y="623"/>
      <point x="214" y="645"/>
      <point x="238" y="645" type="curve" smooth="yes"/>
      <point x="273" y="645"/>
      <point x="291" y="580"/>
      <point x="367" y="580" type="curve" smooth="yes"/>
      <point x="423" y="580"/>
      <point x="465" y="620"/>
      <point x="491" y="711" type="curve"/>
      <point x="431" y="739" type="line"/>
      <point x="417" y="696"/>
      <point x="404" y="672"/>
      <point x="380" y="672" type="curve" smooth="yes"/>
      <point x="341" y="672"/>
      <point x="321" y="735"/>
      <point x="250" y="735" type="curve" smooth="yes"/>
      <point x="189" y="735"/>
      <point x="152" y="697"/>
      <point x="129" y="604" type="curve"/>
    </contour>
    <contour>
      <point x="289" y="515" type="move" name="_top"/>
    </contour>
  </outline>
</glyph>
<glyph name="tilde_dieresis" format="1">
  <advance width="503"/>
  <outline>
    <contour>
      <point x="183" y="785" type="curve" smooth="yes"/>
      <point x="231" y="785"/>
      <point x="263" y="814"/>
      <point x="263" y="860" type="curve" smooth="yes"/>
      <point x="263" y="903"/>
      <point x="232" y="929"/>
      <point x="186" y="929" type="curve" smooth="yes"/>
      <point x="138" y="929"/>
      <point x="107" y="901"/>
      <point x="107" y="856" type="curve" smooth="yes"/>
      <point x="107" y="812"/>
      <point x="137" y="785"/>
    </contour>
    <contour>
      <point x="413" y="785" type="curve" smooth="yes"/>
      <point x="461" y="785"/>
      <point x="492" y="814"/>
      <point x="492" y="860" type="curve" smooth="yes"/>
      <point x="492" y="903"/>
      <point x="462" y="929"/>
      <point x="416" y="929" type="curve" smooth="yes"/>
      <point x="368" y="929"/>
      <point x="337" y="901"/>
      <point x="337" y="856" type="curve" smooth="yes"/>
      <point x="337" y="812"/>
      <point x="367" y="785"/>
    </contour>
    <contour>
      <point x="153" y="577" type="line"/>
      <point x="165" y="623"/>
      <point x="178" y="645"/>
      <point x="202" y="645" type="curve" smooth="yes"/>
      <point x="237" y="645"/>
      <point x="255" y="580"/>
      <point x="331" y="580" type="curve" smooth="yes"/>
      <point x="387" y="580"/>
      <point x="429" y="620"/>
      <point x="455" y="711" type="curve"/>
      <point x="395" y="739" type="line"/>
      <point x="381" y="696"/>
      <point x="368" y="672"/>
      <point x="344" y="672" type="curve" smooth="yes"/>
      <point x="305" y="672"/>
      <point x="285" y="735"/>
      <point x="214" y="735" type="curve" smooth="yes"/>
      <point x="153" y="735"/>
      <point x="116" y="697"/>
      <point x="93" y="604" type="curve"/>
    </contour>
    <contour>
      <point x="252" y="526" type="move" name="_top"/>
    </contour>
  </outline>
</glyph>
<glyph name="two.den" format="1">
  <advance width="339"/>
  <outline>
    <contour>
      <point x="-29" y="0" type="line"/>
      <point x="261" y="0" type="line"/>
      <point x="284" y="128" type="line"/>
      <point x="238" y="128" type="line"/>
      <point x="227" y="95" type="line" smooth="yes"/>
      <point x="220" y="75"/>
      <point x="203" y="72"/>
      <point x="158" y="72" type="curve" smooth="yes"/>
      <point x="55" y="72" type="line"/>
      <point x="193" y="130"/>
      <point x="288" y="173"/>
      <point x="288" y="260" type="curve" smooth="yes"/>
      <point x="288" y="324"/>
      <point x="238" y="358"/>
      <point x="152" y="358" type="curve" smooth="yes"/>
      <point x="98" y="358"/>
      <point x="53" y="336"/>
      <point x="26" y="318" type="curve"/>
      <point x="14" y="242" type="line"/>
      <point x="93" y="242" type="line"/>
      <point x="103" y="301" type="line"/>
      <point x="114" y="307"/>
      <point x="127" y="311"/>
      <point x="142" y="311" type="curve" smooth="yes"/>
      <point x="172" y="311"/>
      <point x="187" y="295"/>
      <point x="187" y="264" type="curve" smooth="yes"/>
      <point x="187" y="190"/>
      <point x="121" y="151"/>
      <point x="-15" y="81" type="curve"/>
    </contour>
  </outline>
</glyph>
<glyph name="two.num" format="1">
  <advance width="332"/>
  <outline>
    <contour>
      <point x="32" y="369" type="line"/>
      <point x="322" y="369" type="line"/>
      <point x="345" y="497" type="line"/>
      <point x="299" y="497" type="line"/>
      <point x="288" y="464" type="line" smooth="yes"/>
      <point x="281" y="444"/>
      <point x="264" y="441"/>
      <point x="219" y="441" type="curve" smooth="yes"/>
      <point x="116" y="441" type="line"/>
      <point x="254" y="499"/>
      <point x="349" y="542"/>
      <point x="349" y="629" type="curve" smooth="yes"/>
      <point x="349" y="693"/>
      <point x="299" y="727"/>
      <point x="213" y="727" type="curve" smooth="yes"/>
      <point x="159" y="727"/>
      <point x="114" y="705"/>
      <point x="87" y="687" type="curve"/>
      <point x="75" y="611" type="line"/>
      <point x="154" y="611" type="line"/>
      <point x="164" y="670" type="line"/>
      <point x="175" y="676"/>
      <point x="188" y="680"/>
      <point x="203" y="680" type="curve" smooth="yes"/>
      <point x="233" y="680"/>
      <point x="248" y="664"/>
      <point x="248" y="633" type="curve" smooth="yes"/>
      <point x="248" y="559"/>
      <point x="182" y="520"/>
      <point x="46" y="450" type="curve"/>
    </contour>
  </outline>
</glyph>
<glyph name="uni20AB.proportional" format="1">
  <advance width="657"/>
  <outline>
    <contour>
      <point x="218" y="-13" type="curve" smooth="yes"/>
      <point x="289" y="-13"/>
      <point x="339" y="25"/>
      <point x="387" y="92" type="curve"/>
      <point x="387" y="91" type="line" smooth="yes"/>
      <point x="387" y="26"/>
      <point x="430" y="-9"/>
      <point x="496" y="-9" type="curve" smooth="yes"/>
      <point x="542" y="-9"/>
      <point x="581" y="6"/>
      <point x="601" y="20" type="curve"/>
      <point x="612" y="82" type="line"/>
      <point x="603" y="79"/>
      <point x="576" y="66"/>
      <point x="550" y="66" type="curve" smooth="yes"/>
      <point x="530" y="66"/>
      <point x="520" y="74"/>
      <point x="520" y="92" type="curve" smooth="yes"/>
      <point x="520" y="108"/>
      <point x="525" y="135"/>
      <point x="532" y="178" type="curve"/>
      <point x="601" y="575" type="line"/>
      <point x="691" y="575" type="line"/>
      <point x="703" y="641" type="line"/>
      <point x="613" y="641" type="line"/>
      <point x="629" y="735" type="line"/>
      <point x="492" y="735" type="line"/>
      <point x="476" y="641" type="line"/>
      <point x="296" y="641" type="line"/>
      <point x="284" y="575" type="line"/>
      <point x="464" y="575" type="line"/>
      <point x="450" y="492" type="line"/>
      <point x="421" y="509"/>
      <point x="386" y="520"/>
      <point x="343" y="520" type="curve" smooth="yes"/>
      <point x="165" y="520"/>
      <point x="44" y="366"/>
      <point x="44" y="192" type="curve" smooth="yes"/>
      <point x="44" y="60"/>
      <point x="111" y="-13"/>
    </contour>
    <contour>
      <point x="187" y="182" type="curve" smooth="yes"/>
      <point x="187" y="312"/>
      <point x="252" y="453"/>
      <point x="353" y="453" type="curve" smooth="yes"/>
      <point x="389" y="453"/>
      <point x="417" y="440"/>
      <point x="437" y="417" type="curve"/>
      <point x="395" y="179" type="line"/>
      <point x="347" y="103"/>
      <point x="305" y="63"/>
      <point x="258" y="63" type="curve" smooth="yes"/>
      <point x="210" y="63"/>
      <point x="187" y="101"/>
    </contour>
    <contour>
      <point x="91" y="-114" type="line"/>
      <point x="79" y="-189" type="line"/>
      <point x="534" y="-189" type="line"/>
      <point x="547" y="-114" type="line"/>
    </contour>
  </outline>
</glyph>
<glyph name="yen.proportional" format="1">
  <advance width="619"/>
  <outline>
    <contour>
      <point x="96" y="0" type="line"/>
      <point x="413" y="0" type="line"/>
      <point x="424" y="58" type="line"/>
      <point x="408" y="58" type="line" smooth="yes"/>
      <point x="367" y="58"/>
      <point x="337" y="65"/>
      <point x="342" y="94" type="curve" smooth="yes"/>
      <point x="354" y="164" type="line"/>
      <point x="524" y="164" type="line"/>
      <point x="536" y="231" type="line"/>
      <point x="366" y="231" type="line"/>
      <point x="377" y="294" type="line"/>
      <point x="547" y="294" type="line"/>
      <point x="559" y="361" type="line"/>
      <point x="393" y="361" type="line"/>
      <point x="583" y="611" type="line" smooth="yes"/>
      <point x="609" y="646"/>
      <point x="630" y="652"/>
      <point x="655" y="652" type="curve" smooth="yes"/>
      <point x="659" y="652" type="line"/>
      <point x="670" y="710" type="line"/>
      <point x="466" y="710" type="line"/>
      <point x="455" y="652" type="line"/>
      <point x="466" y="652" type="line" smooth="yes"/>
      <point x="495" y="652"/>
      <point x="526" y="645"/>
      <point x="524" y="634" type="curve"/>
      <point x="362" y="416" type="line"/>
      <point x="268" y="642" type="line"/>
      <point x="269" y="649"/>
      <point x="302" y="652"/>
      <point x="329" y="652" type="curve" smooth="yes"/>
      <point x="342" y="652" type="line"/>
      <point x="353" y="710" type="line"/>
      <point x="88" y="710" type="line"/>
      <point x="77" y="652" type="line"/>
      <point x="81" y="652" type="line" smooth="yes"/>
      <point x="106" y="652"/>
      <point x="124" y="650"/>
      <point x="134" y="626" type="curve" smooth="yes"/>
      <point x="246" y="361" type="line"/>
      <point x="79" y="361" type="line"/>
      <point x="67" y="294" type="line"/>
      <point x="236" y="294" type="line"/>
      <point x="225" y="231" type="line"/>
      <point x="56" y="231" type="line"/>
      <point x="44" y="164" type="line"/>
      <point x="213" y="164" type="line"/>
      <point x="201" y="94" type="line" smooth="yes"/>
      <point x="196" y="65"/>
      <point x="164" y="58"/>
      <point x="123" y="58" type="curve" smooth="yes"/>
      <point x="107" y="58" type="line"/>
    </contour>
  </outline>
</glyph>
<glyph name="zero.sup" format="1">
  <advance width="341"/>
  <outline>
    <contour>
      <point x="57" y="516" type="curve" smooth="yes"/>
      <point x="57" y="435"/>
      <point x="98" y="363"/>
      <point x="192" y="363" type="curve" smooth="yes"/>
      <point x="319" y="363"/>
      <point x="370" y="486"/>
      <point x="370" y="574" type="curve" smooth="yes"/>
      <point x="370" y="655"/>
      <point x="328" y="728"/>
      <point x="235" y="728" type="curve"/>
      <point x="108" y="728"/>
      <point x="57" y="605"/>
    </contour>
    <contour>
      <point x="164" y="557" type="curve" smooth="yes"/>
      <point x="178" y="632"/>
      <point x="198" y="681"/>
      <point x="235" y="681" type="curve"/>
      <point x="265" y="681"/>
      <point x="273" y="656"/>
      <point x="273" y="620" type="curve" smooth="yes"/>
      <point x="273" y="603"/>
      <point x="270" y="573"/>
      <point x="262" y="533" type="curve" smooth="yes"/>
      <point x="248" y="458"/>
      <point x="228" y="409"/>
      <point x="191" y="409" type="curve"/>
      <point x="161" y="409"/>
      <point x="153" y="434"/>
      <point x="153" y="470" type="curve" smooth="yes"/>
      <point x="153" y="487"/>
      <point x="156" y="517"/>
    </contour>
  </outline>
</glyph>
